<svg width="21" height="21" viewBox="0 0 21 21" fill="none" xmlns="http://www.w3.org/2000/svg">
<path fill-rule="evenodd" clip-rule="evenodd" d="M2.59608 9.14067C2.59608 5.42137 5.6225 2.39591 9.34179 2.39591C13.0601 2.39591 16.0865 5.42137 16.0865 9.14067C16.0865 12.86 13.0601 15.8864 9.34179 15.8864C5.6225 15.8864 2.59608 12.86 2.59608 9.14067ZM20.3205 19.1639L15.9131 14.768C17.2126 13.2529 18.0032 11.2892 18.0032 9.14067C18.0032 4.36529 14.1172 0.479248 9.34179 0.479248C4.56545 0.479248 0.679413 4.36529 0.679413 9.14067C0.679413 13.917 4.56545 17.803 9.34179 17.803C11.2795 17.803 13.0649 17.1552 14.5091 16.0752L18.9673 20.5209L20.3205 19.1639Z" fill="black"/>
</svg>
