<?xml version="1.0" encoding="UTF-8"?>
<svg id="Layer_1" data-name="Layer 1" xmlns="http://www.w3.org/2000/svg" xmlns:xlink="http://www.w3.org/1999/xlink" viewBox="0 0 26.46 18.57">
  <defs>
    <style>
      .cls-1 {
        fill: url(#linear-gradient);
      }

      .cls-2 {
        stroke: #000;
        stroke-miterlimit: 10;
        stroke-width: .2px;
      }

      .cls-2, .cls-3 {
        fill: #fff;
      }

      .cls-4 {
        fill: none;
      }

      .cls-4, .cls-3 {
        stroke: #231f20;
        stroke-width: .06px;
      }

      .cls-5 {
        fill: url(#linear-gradient-3);
      }

      .cls-6 {
        fill: url(#linear-gradient-2);
      }
    </style>
    <linearGradient id="linear-gradient" x1=".03" y1="165.51" x2="20.42" y2="165.51" gradientTransform="translate(0 177.46) scale(1 -1)" gradientUnits="userSpaceOnUse">
      <stop offset="0" stop-color="#e6e6e6"/>
      <stop offset=".28" stop-color="#fff"/>
      <stop offset="1" stop-color="#a3a3a3"/>
    </linearGradient>
    <linearGradient id="linear-gradient-2" x1="7.79" y1="172.37" x2="12.66" y2="172.37" gradientTransform="translate(0 177.46) scale(1 -1)" gradientUnits="userSpaceOnUse">
      <stop offset="0" stop-color="#e6e6e6"/>
      <stop offset=".28" stop-color="#fff"/>
      <stop offset="1" stop-color="#000"/>
    </linearGradient>
    <linearGradient id="linear-gradient-3" x1=".03" y1="165.39" x2="26.46" y2="165.39" xlink:href="#linear-gradient"/>
  </defs>
  <g>
    <path class="cls-1" d="m20.42,5.34H.03v8.18H.03c.02,2.78,4.58,5.04,10.19,5.04s10.17-2.25,10.19-5.04h0V5.34h.01Z"/>
    <path class="cls-3" d="m20.42,5.09c0,2.79-4.56,5.06-10.2,5.06S.03,7.88.03,5.09,4.59.03,10.22.03s10.2,2.26,10.2,5.06Z"/>
    <path class="cls-6" d="m12.66,5.09c0,.67-1.09,1.21-2.44,1.21s-2.44-.54-2.44-1.21,1.09-1.21,2.44-1.21,2.44.54,2.44,1.21Z"/>
    <path class="cls-4" d="m13.26,5.09c0,.83-1.36,1.51-3.04,1.51s-3.04-.68-3.04-1.51,1.36-1.51,3.04-1.51,3.04.68,3.04,1.51Z"/>
    <path class="cls-4" d="m13.66,5.09c0,.94-1.54,1.71-3.43,1.71s-3.43-.76-3.43-1.71,1.54-1.7,3.43-1.7,3.43.76,3.43,1.7Z"/>
    <path class="cls-4" d="m14.08,5.09c0,1.06-1.73,1.91-3.85,1.91s-3.85-.86-3.85-1.91,1.73-1.91,3.85-1.91,3.85.86,3.85,1.91Z"/>
    <path class="cls-4" d="m15.15,5.09c0,1.35-2.21,2.45-4.93,2.45s-4.93-1.1-4.93-2.45,2.21-2.45,4.93-2.45,4.93,1.1,4.93,2.45Z"/>
    <path class="cls-4" d="m16.23,5.09c0,1.64-2.69,2.98-6,2.98s-6-1.33-6-2.98,2.69-2.98,6-2.98,6,1.33,6,2.98Z"/>
    <path class="cls-4" d="m17.38,5.09c0,1.96-3.2,3.55-7.16,3.55s-7.16-1.59-7.16-3.55,3.2-3.55,7.16-3.55,7.16,1.59,7.16,3.55Z"/>
    <path class="cls-4" d="m18.61,5.09c0,2.3-3.76,4.16-8.39,4.16S1.83,7.39,1.83,5.09,5.59.93,10.22.93s8.39,1.86,8.39,4.16Z"/>
    <path class="cls-4" d="m19.45,5.09c0,2.53-4.13,4.58-9.23,4.58S1,7.62,1,5.09,5.13.51,10.22.51s9.23,2.05,9.23,4.58Z"/>
    <line class="cls-4" x1="20.43" y1="5.16" x2="20.43" y2="10.21"/>
    <path class="cls-5" d="m26.46,10.23v8.34H9.81S.82,18.43.03,14.54V5.56s.86,4.26,10.08,4.67h16.35"/>
  </g>
  <g>
    <polyline points="10.37 11.26 7.97 12.03 7.97 12.84 10.37 13.61 10.37 12.82 8.89 12.43 10.37 12.03 10.37 11.26"/>
    <polyline points="7.98 15.77 10.38 15 10.38 14.19 7.98 13.42 7.98 14.2 9.46 14.59 7.98 15 7.98 15.77"/>
    <g>
      <path d="m10.63,17.7v-.13h.51v-.13h.12v.26s-.63,0-.63,0Z"/>
      <path d="m10.83,17.21v-.12h.42v.12h-.05s.06.05.06.08c0,.02,0,.03-.01.04,0,.01-.02.03-.04.03-.04.03-.1.04-.17.04s-.13-.01-.17-.04c-.01,0-.03-.02-.03-.03s-.01-.03-.01-.05c0-.03.02-.06.06-.08h-.06Zm.1.03s.01.02.03.03c.02,0,.05.01.08.01s.06,0,.08-.01.03-.02.03-.03,0-.02-.02-.03h-.09s-.06,0-.08.01c-.02,0-.03.02-.03.03h0Z"/>
      <path d="m10.58,16.89h.31s-.06-.05-.06-.08c0-.02,0-.03.01-.05,0-.01.02-.03.03-.03.04-.02.1-.04.17-.04s.13.01.17.04c.01,0,.03.02.04.03,0,.01.01.03.01.04,0,.03-.02.06-.06.08h.05v.12h-.68v-.12h.01Zm.35-.03s.01.02.03.03c.02,0,.05.01.08.01s.06,0,.08-.01c.02,0,.03-.02.03-.03s-.01-.02-.03-.03c-.02,0-.05-.01-.08-.01-.08,0-.11.01-.11.04Z"/>
      <path d="m11.13,16.44v-.1s.06.01.08.02c.02.01.04.03.05.05.01.02.02.04.02.07,0,.05-.02.09-.06.12s-.09.04-.15.04c-.08,0-.14-.02-.18-.05-.04-.03-.05-.07-.05-.11,0-.05.02-.08.05-.11.04-.03.09-.04.15-.04h.05v.19h.07s.03-.02.03-.04-.02-.04-.05-.04h0Zm-.12,0h-.01s-.04,0-.06.01c-.01,0-.02.02-.02.03s0,.02.02.03c.01,0,.03.01.06.01h.01v-.09h0Z"/>
      <path d="m10.58,16.27v-.12h.68v.12h-.68Z"/>
      <path d="m10.58,15.99v-.13l.26.13v.09l-.26-.09Z"/>
      <path d="m10.86,15.7l.09.05s-.03.04-.03.06v.02h.04s.01-.02.02-.04c.02-.03.03-.06.05-.07.02-.01.04-.02.07-.02.04,0,.08.01.1.03.03.03.05.06.05.1,0,.05-.02.09-.05.13l-.08-.05s.03-.04.03-.06v-.03s-.01-.01-.03-.01h-.02s-.01.02-.02.03c-.02.04-.03.06-.05.07-.02.02-.05.03-.08.03-.04,0-.07-.01-.1-.04-.02-.03-.03-.06-.03-.1s.01-.08.04-.11h0Z"/>
      <path d="m10.63,15.46v-.33h.12v.1h.52v.13h-.52v.1s-.12,0-.12,0Z"/>
      <path d="m10.83,14.94c0-.06.02-.1.07-.13.04-.02.09-.04.16-.04.06,0,.11.01.15.04s.07.07.07.13c0,.04,0,.07-.03.09-.02.03-.05.05-.1.06-.03,0-.06.01-.1.01-.06,0-.11-.01-.15-.04s-.07-.07-.07-.13h0Zm.11,0s0,.02.03.03c.02,0,.05.01.08.01s.06,0,.08-.01c.02,0,.03-.02.03-.03s-.01-.02-.03-.03c-.02,0-.05-.01-.08-.01s-.06,0-.08.01c-.02,0-.03.02-.03.03Z"/>
      <path d="m10.72,14.7v-.12h.12v-.05h.1v.05h.33v.12h-.33v.04h-.1v-.04h-.12Z"/>
      <path d="m10.83,14.31v-.12h.42v.12h-.05s.06.05.06.08c0,.02,0,.03-.01.04,0,.01-.02.03-.04.03-.04.03-.1.04-.17.04s-.13-.01-.17-.04c-.01,0-.03-.02-.03-.03s-.01-.03-.01-.05c0-.03.02-.06.06-.08h-.06Zm.1.03s.01.02.03.03c.02,0,.05.01.08.01s.06,0,.08-.01c.02,0,.03-.02.03-.03s0-.02-.02-.03h-.09s-.06,0-.08.01c-.02,0-.03.02-.03.03h0Z"/>
      <path d="m10.58,14.11v-.12h.68v.12h-.68Z"/>
      <path d="m10.65,13.45h.12s-.04.06-.04.09c0,.02,0,.03.02.05.01.01.03.02.04.02.02,0,.03,0,.05-.01.01,0,.03-.03.05-.05.02-.03.04-.05.05-.07l.03-.03s.06-.03.1-.03.08,0,.11.03c.03.02.05.04.07.08.01.02.02.05.02.08,0,.04-.01.08-.03.11h-.12s.03-.07.03-.09,0-.04-.02-.06c-.01-.01-.03-.02-.05-.02s-.03,0-.04.01c-.01,0-.03.03-.05.06-.02.03-.04.06-.06.08-.03.03-.07.04-.12.04-.06,0-.1-.02-.14-.05-.03-.03-.05-.07-.05-.12,0-.04.01-.08.03-.11h0Z"/>
      <path d="m10.83,13.2c0-.06.02-.1.07-.13.04-.02.09-.04.16-.04.06,0,.11.01.15.04s.07.07.07.13c0,.04,0,.07-.03.09-.02.03-.05.05-.1.06-.03,0-.06.01-.1.01-.06,0-.11-.01-.15-.04s-.07-.07-.07-.13h0Zm.11,0s0,.02.03.03c.02,0,.05.01.08.01s.06,0,.08-.01c.02,0,.03-.02.03-.03s-.01-.02-.03-.03c-.02,0-.05-.01-.08-.01s-.06,0-.08.01c-.02,0-.03.02-.03.03Z"/>
      <path d="m10.58,12.97v-.12h.68v.12h-.68Z"/>
      <path d="m10.83,12.78v-.12h.3s.02-.01.02-.03,0-.02-.02-.02h-.3v-.12h.33s.02,0,.04.02c.02.01.03.03.05.05.01.02.02.05.02.08,0,.04-.01.07-.03.1-.02.03-.05.04-.08.05h-.33Z"/>
      <path d="m10.72,12.39v-.12h.12v-.05h.1v.05h.33v.12h-.33v.04h-.1v-.04h-.12Z"/>
      <path d="m10.63,12.11s0-.04.02-.05c.01-.01.03-.02.05-.02s.04,0,.06.03c.01.01.02.03.02.05s0,.04-.02.05c-.01.01-.03.02-.05.02s-.04,0-.05-.02-.02-.03-.02-.06h-.01Zm.2.06v-.12h.42v.12h-.42Z"/>
      <path d="m10.83,11.83c0-.06.02-.1.07-.13.04-.02.09-.04.16-.04.06,0,.11.01.15.04s.07.07.07.13c0,.04,0,.07-.03.09-.02.03-.05.05-.1.06-.03,0-.06.01-.1.01-.06,0-.11-.01-.15-.04s-.07-.07-.07-.13h0Zm.11,0s0,.02.03.03c.02,0,.05.01.08.01s.06,0,.08-.01c.02,0,.03-.02.03-.03s-.01-.02-.03-.03c-.02,0-.05-.01-.08-.01s-.06,0-.08.01c-.02,0-.03.02-.03.03Z"/>
      <path d="m10.83,11.6v-.12h.07s-.03-.02-.04-.03c-.02-.02-.03-.05-.03-.07,0-.01,0-.03.01-.04,0-.01.02-.02.03-.03.02,0,.06-.01.11-.01h.28v.12h-.3s-.01.01-.01.02,0,.02.02.03h.29v.12h-.43Z"/>
    </g>
    <polygon points="10.37 12.66 10.37 12.19 9.49 12.43 10.37 12.66"/>
    <path d="m7.98,17.7h.69v-1.64h-.69v1.64Zm1.7,0h.69v-1.64h-.69v.89h-.16v-.89h-.69v1.64h.85Z"/>
  </g>
  <g>
    <polyline points="15.13 11.26 12.73 12.03 12.73 12.84 15.13 13.61 15.13 12.82 13.66 12.43 15.13 12.03 15.13 11.26"/>
    <polyline points="12.74 15.77 15.14 15 15.14 14.19 12.74 13.42 12.74 14.2 14.22 14.59 12.74 15 12.74 15.77"/>
    <g>
      <path d="m15.39,17.7v-.13h.51v-.13h.12v.26s-.63,0-.63,0Z"/>
      <path d="m15.59,17.21v-.12h.42v.12h-.05s.06.05.06.08c0,.02,0,.03-.01.04,0,.01-.02.03-.04.03-.04.03-.1.04-.17.04s-.13-.01-.17-.04c-.01,0-.03-.02-.03-.03s-.01-.03-.01-.05c0-.03.02-.06.06-.08h-.06Zm.1.03s.01.02.03.03c.02,0,.05.01.08.01s.06,0,.08-.01.03-.02.03-.03,0-.02-.02-.03h-.09s-.06,0-.08.01c-.02,0-.03.02-.03.03h0Z"/>
      <path d="m15.34,16.89h.31s-.06-.05-.06-.08c0-.02,0-.03.01-.05,0-.01.02-.03.03-.03.04-.02.1-.04.17-.04s.13.01.17.04c.01,0,.03.02.04.03,0,.01.01.03.01.04,0,.03-.02.06-.06.08h.05v.12h-.68v-.12h.01Zm.35-.03s.01.02.03.03c.02,0,.05.01.08.01s.06,0,.08-.01c.02,0,.03-.02.03-.03s-.01-.02-.03-.03c-.02,0-.05-.01-.08-.01-.08,0-.11.01-.11.04Z"/>
      <path d="m15.89,16.44v-.1s.06.01.08.02c.02.01.04.03.05.05.01.02.02.04.02.07,0,.05-.02.09-.06.12s-.09.04-.15.04c-.08,0-.14-.02-.18-.05-.04-.03-.05-.07-.05-.11,0-.05.02-.08.05-.11.04-.03.09-.04.15-.04h.05v.19h.07s.03-.02.03-.04-.02-.04-.05-.04h0Zm-.12,0h-.01s-.04,0-.06.01c-.01,0-.02.02-.02.03s0,.02.02.03c.01,0,.03.01.06.01h.01v-.09h0Z"/>
      <path d="m15.34,16.27v-.12h.68v.12h-.68Z"/>
      <path d="m15.34,15.99v-.13l.26.13v.09l-.26-.09Z"/>
      <path d="m15.62,15.7l.09.05s-.03.04-.03.06v.02h.04s.01-.02.02-.04c.02-.03.03-.06.05-.07.02-.01.04-.02.07-.02.04,0,.08.01.1.03.03.03.05.06.05.1,0,.05-.02.09-.05.13l-.08-.05s.03-.04.03-.06v-.03s-.01-.01-.03-.01h-.02s-.01.02-.02.03c-.02.04-.03.06-.05.07-.02.02-.05.03-.08.03-.04,0-.07-.01-.1-.04-.02-.03-.03-.06-.03-.1s.01-.08.04-.11h0Z"/>
      <path d="m15.39,15.46v-.33h.12v.1h.52v.13h-.52v.1s-.12,0-.12,0Z"/>
      <path d="m15.59,14.94c0-.06.02-.1.07-.13.04-.02.09-.04.16-.04.06,0,.11.01.15.04.04.03.07.07.07.13,0,.04,0,.07-.03.09-.02.03-.05.05-.1.06-.03,0-.06.01-.1.01-.06,0-.11-.01-.15-.04s-.07-.07-.07-.13h0Zm.11,0s0,.02.03.03c.02,0,.05.01.08.01s.06,0,.08-.01c.02,0,.03-.02.03-.03s-.01-.02-.03-.03c-.02,0-.05-.01-.08-.01s-.06,0-.08.01c-.02,0-.03.02-.03.03Z"/>
      <path d="m15.48,14.7v-.12h.12v-.05h.1v.05h.33v.12h-.33v.04h-.1v-.04h-.12Z"/>
      <path d="m15.59,14.31v-.12h.42v.12h-.05s.06.05.06.08c0,.02,0,.03-.01.04,0,.01-.02.03-.04.03-.04.03-.1.04-.17.04s-.13-.01-.17-.04c-.01,0-.03-.02-.03-.03s-.01-.03-.01-.05c0-.03.02-.06.06-.08h-.06Zm.1.03s.01.02.03.03c.02,0,.05.01.08.01s.06,0,.08-.01c.02,0,.03-.02.03-.03s0-.02-.02-.03h-.09s-.06,0-.08.01c-.02,0-.03.02-.03.03h0Z"/>
      <path d="m15.34,14.11v-.12h.68v.12h-.68Z"/>
      <path d="m15.41,13.45h.12s-.04.06-.04.09c0,.02,0,.03.02.05.01.01.03.02.04.02.02,0,.03,0,.05-.01.01,0,.03-.03.05-.05.02-.03.04-.05.05-.07l.03-.03s.06-.03.1-.03.08,0,.11.03c.03.02.05.04.07.08.01.02.02.05.02.08,0,.04-.01.08-.03.11h-.12s.03-.07.03-.09,0-.04-.02-.06c-.01-.01-.03-.02-.05-.02s-.03,0-.04.01c-.01,0-.03.03-.05.06-.02.03-.04.06-.06.08-.03.03-.07.04-.12.04-.06,0-.1-.02-.14-.05-.03-.03-.05-.07-.05-.12,0-.04.01-.08.03-.11h0Z"/>
      <path d="m15.59,13.2c0-.06.02-.1.07-.13.04-.02.09-.04.16-.04.06,0,.11.01.15.04.04.03.07.07.07.13,0,.04,0,.07-.03.09-.02.03-.05.05-.1.06-.03,0-.06.01-.1.01-.06,0-.11-.01-.15-.04s-.07-.07-.07-.13h0Zm.11,0s0,.02.03.03c.02,0,.05.01.08.01s.06,0,.08-.01c.02,0,.03-.02.03-.03s-.01-.02-.03-.03c-.02,0-.05-.01-.08-.01s-.06,0-.08.01c-.02,0-.03.02-.03.03Z"/>
      <path d="m15.34,12.97v-.12h.68v.12h-.68Z"/>
      <path d="m15.59,12.78v-.12h.3s.02-.01.02-.03,0-.02-.02-.02h-.3v-.12h.33s.02,0,.04.02c.02.01.03.03.05.05.01.02.02.05.02.08,0,.04-.01.07-.03.1-.02.03-.05.04-.08.05h-.33Z"/>
      <path d="m15.48,12.39v-.12h.12v-.05h.1v.05h.33v.12h-.33v.04h-.1v-.04h-.12Z"/>
      <path d="m15.39,12.11s0-.04.02-.05c.01-.01.03-.02.05-.02s.04,0,.06.03c.01.01.02.03.02.05s0,.04-.02.05c-.01.01-.03.02-.05.02s-.04,0-.05-.02-.02-.03-.02-.06h-.01Zm.2.06v-.12h.42v.12h-.42Z"/>
      <path d="m15.59,11.83c0-.06.02-.1.07-.13.04-.02.09-.04.16-.04.06,0,.11.01.15.04.04.03.07.07.07.13,0,.04,0,.07-.03.09-.02.03-.05.05-.1.06-.03,0-.06.01-.1.01-.06,0-.11-.01-.15-.04s-.07-.07-.07-.13h0Zm.11,0s0,.02.03.03c.02,0,.05.01.08.01s.06,0,.08-.01c.02,0,.03-.02.03-.03s-.01-.02-.03-.03c-.02,0-.05-.01-.08-.01s-.06,0-.08.01c-.02,0-.03.02-.03.03Z"/>
      <path d="m15.59,11.6v-.12h.07s-.03-.02-.04-.03c-.02-.02-.03-.05-.03-.07,0-.01,0-.03.01-.04,0-.01.02-.02.03-.03.02,0,.06-.01.11-.01h.28v.12h-.3s-.01.01-.01.02,0,.02.02.03h.29v.12h-.43Z"/>
    </g>
    <polygon points="15.13 12.66 15.13 12.19 14.25 12.43 15.13 12.66"/>
    <path d="m12.74,17.7h.69v-1.64h-.69v1.64Zm1.7,0h.69v-1.64h-.69v.89h-.16v-.89h-.69v1.64h.85Z"/>
  </g>
  <g>
    <polyline points="19.89 11.26 17.5 12.03 17.5 12.84 19.89 13.61 19.89 12.82 18.42 12.43 19.89 12.03 19.89 11.26"/>
    <polyline points="17.5 15.77 19.9 15 19.9 14.19 17.5 13.42 17.5 14.2 18.98 14.59 17.5 15 17.5 15.77"/>
    <g>
      <path d="m20.15,17.7v-.13h.51v-.13h.12v.26s-.63,0-.63,0Z"/>
      <path d="m20.36,17.21v-.12h.42v.12h-.05s.06.05.06.08c0,.02,0,.03-.01.04,0,.01-.02.03-.04.03-.04.03-.1.04-.17.04s-.13-.01-.17-.04c-.01,0-.03-.02-.03-.03s-.01-.03-.01-.05c0-.03.02-.06.06-.08h-.06Zm.1.03s.01.02.03.03c.02,0,.05.01.08.01s.06,0,.08-.01.03-.02.03-.03,0-.02-.02-.03h-.09s-.06,0-.08.01c-.02,0-.03.02-.03.03h0Z"/>
      <path d="m20.1,16.89h.31s-.06-.05-.06-.08c0-.02,0-.03.01-.05,0-.01.02-.03.03-.03.04-.02.1-.04.17-.04s.13.01.17.04c.01,0,.03.02.04.03,0,.01.01.03.01.04,0,.03-.02.06-.06.08h.05v.12h-.68v-.12h0Zm.35-.03s.01.02.03.03c.02,0,.05.01.08.01s.06,0,.08-.01c.02,0,.03-.02.03-.03s-.01-.02-.03-.03c-.02,0-.05-.01-.08-.01-.08,0-.11.01-.11.04Z"/>
      <path d="m20.65,16.44v-.1s.06.01.08.02.04.03.05.05c.01.02.02.04.02.07,0,.05-.02.09-.06.12-.04.03-.09.04-.15.04-.08,0-.14-.02-.18-.05-.04-.03-.05-.07-.05-.11,0-.05.02-.08.05-.11.04-.03.09-.04.15-.04h.05v.19h.07s.03-.02.03-.04-.02-.04-.05-.04h-.01Zm-.12,0h-.01s-.04,0-.06.01c-.01,0-.02.02-.02.03s0,.02.02.03c.01,0,.03.01.06.01h.01v-.09h0Z"/>
      <path d="m20.1,16.27v-.12h.68v.12h-.68Z"/>
      <path d="m20.1,15.99v-.13l.26.13v.09l-.26-.09Z"/>
      <path d="m20.38,15.7l.09.05s-.03.04-.03.06v.02h.04s.01-.02.02-.04c.02-.03.03-.06.05-.07s.04-.02.07-.02c.04,0,.08.01.1.03.03.03.05.06.05.1,0,.05-.02.09-.05.13l-.08-.05s.03-.04.03-.06v-.03s-.01-.01-.03-.01h-.02s-.01.02-.02.03c-.02.04-.03.06-.05.07-.02.02-.05.03-.08.03-.04,0-.07-.01-.1-.04-.02-.03-.03-.06-.03-.1s.01-.08.04-.11h0Z"/>
      <path d="m20.15,15.46v-.33h.12v.1h.52v.13h-.52v.1s-.12,0-.12,0Z"/>
      <path d="m20.35,14.94c0-.06.02-.1.07-.13.04-.02.09-.04.16-.04.06,0,.11.01.15.04.04.03.07.07.07.13,0,.04,0,.07-.03.09-.02.03-.05.05-.1.06-.03,0-.06.01-.1.01-.06,0-.11-.01-.15-.04-.04-.03-.07-.07-.07-.13h0Zm.11,0s0,.02.03.03c.02,0,.05.01.08.01s.06,0,.08-.01c.02,0,.03-.02.03-.03s-.01-.02-.03-.03c-.02,0-.05-.01-.08-.01s-.06,0-.08.01c-.02,0-.03.02-.03.03Z"/>
      <path d="m20.24,14.7v-.12h.12v-.05h.1v.05h.33v.12h-.33v.04h-.1v-.04h-.12Z"/>
      <path d="m20.36,14.31v-.12h.42v.12h-.05s.06.05.06.08c0,.02,0,.03-.01.04,0,.01-.02.03-.04.03-.04.03-.1.04-.17.04s-.13-.01-.17-.04c-.01,0-.03-.02-.03-.03s-.01-.03-.01-.05c0-.03.02-.06.06-.08h-.06Zm.1.03s.01.02.03.03c.02,0,.05.01.08.01s.06,0,.08-.01c.02,0,.03-.02.03-.03s0-.02-.02-.03h-.09s-.06,0-.08.01c-.02,0-.03.02-.03.03h0Z"/>
      <path d="m20.1,14.11v-.12h.68v.12h-.68Z"/>
      <path d="m20.17,13.45h.12s-.04.06-.04.09c0,.02,0,.03.02.05.01.01.03.02.04.02.02,0,.03,0,.05-.01.01,0,.03-.03.05-.05.02-.03.04-.05.05-.07.01-.01.02-.02.03-.03.03-.02.06-.03.1-.03s.08,0,.11.03c.03.02.05.04.07.08.01.02.02.05.02.08,0,.04-.01.08-.03.11h-.12s.03-.07.03-.09,0-.04-.02-.06c-.01-.01-.03-.02-.05-.02s-.03,0-.04.01c-.01,0-.03.03-.05.06-.02.03-.04.06-.06.08-.03.03-.07.04-.12.04-.06,0-.1-.02-.14-.05-.03-.03-.05-.07-.05-.12,0-.04.01-.08.03-.11h0Z"/>
      <path d="m20.35,13.2c0-.06.02-.1.07-.13.04-.02.09-.04.16-.04.06,0,.11.01.15.04.04.03.07.07.07.13,0,.04,0,.07-.03.09-.02.03-.05.05-.1.06-.03,0-.06.01-.1.01-.06,0-.11-.01-.15-.04-.04-.03-.07-.07-.07-.13h0Zm.11,0s0,.02.03.03c.02,0,.05.01.08.01s.06,0,.08-.01c.02,0,.03-.02.03-.03s-.01-.02-.03-.03c-.02,0-.05-.01-.08-.01s-.06,0-.08.01c-.02,0-.03.02-.03.03Z"/>
      <path d="m20.1,12.97v-.12h.68v.12h-.68Z"/>
      <path d="m20.36,12.78v-.12h.3s.02-.01.02-.03,0-.02-.02-.02h-.3v-.12h.33s.02,0,.04.02c.02.01.03.03.05.05.01.02.02.05.02.08,0,.04-.01.07-.03.1-.02.03-.05.04-.08.05h-.33Z"/>
      <path d="m20.24,12.39v-.12h.12v-.05h.1v.05h.33v.12h-.33v.04h-.1v-.04h-.12Z"/>
      <path d="m20.15,12.11s0-.04.02-.05c.01-.01.03-.02.05-.02s.04,0,.06.03c.01.01.02.03.02.05s0,.04-.02.05c-.01.01-.03.02-.05.02s-.04,0-.05-.02c-.01-.02-.02-.03-.02-.06h-.01Zm.2.06v-.12h.42v.12h-.42Z"/>
      <path d="m20.35,11.83c0-.06.02-.1.07-.13.04-.02.09-.04.16-.04.06,0,.11.01.15.04.04.03.07.07.07.13,0,.04,0,.07-.03.09-.02.03-.05.05-.1.06-.03,0-.06.01-.1.01-.06,0-.11-.01-.15-.04-.04-.03-.07-.07-.07-.13h0Zm.11,0s0,.02.03.03c.02,0,.05.01.08.01s.06,0,.08-.01c.02,0,.03-.02.03-.03s-.01-.02-.03-.03c-.02,0-.05-.01-.08-.01s-.06,0-.08.01c-.02,0-.03.02-.03.03Z"/>
      <path d="m20.36,11.6v-.12h.07s-.03-.02-.04-.03c-.02-.02-.03-.05-.03-.07,0-.01,0-.03.01-.04,0-.01.02-.02.03-.03.02,0,.06-.01.11-.01h.28v.12h-.3s-.01.01-.01.02,0,.02.02.03h.29v.12h-.43Z"/>
    </g>
    <polygon points="19.89 12.66 19.89 12.19 19.01 12.43 19.89 12.66"/>
    <path d="m17.5,17.7h.69v-1.64h-.69v1.64Zm1.7,0h.69v-1.64h-.69v.89h-.16v-.89h-.69v1.64h.85Z"/>
  </g>
  <g>
    <polyline points="24.65 11.26 22.26 12.03 22.26 12.84 24.65 13.61 24.65 12.82 23.18 12.43 24.65 12.03 24.65 11.26"/>
    <polyline points="22.26 15.77 24.66 15 24.66 14.19 22.26 13.42 22.26 14.2 23.74 14.59 22.26 15 22.26 15.77"/>
    <g>
      <path d="m24.91,17.7v-.13h.51v-.13h.12v.26s-.63,0-.63,0Z"/>
      <path d="m25.12,17.21v-.12h.42v.12h-.05s.06.05.06.08c0,.02,0,.03-.01.04,0,.01-.02.03-.04.03-.04.03-.1.04-.17.04s-.13-.01-.17-.04c-.01,0-.03-.02-.03-.03s-.01-.03-.01-.05c0-.03.02-.06.06-.08h-.06Zm.1.03s.01.02.03.03c.02,0,.05.01.08.01s.06,0,.08-.01.03-.02.03-.03,0-.02-.02-.03h-.09s-.06,0-.08.01c-.02,0-.03.02-.03.03h0Z"/>
      <path d="m24.86,16.89h.31s-.06-.05-.06-.08c0-.02,0-.03.01-.05,0-.01.02-.03.03-.03.04-.02.1-.04.17-.04s.13.01.17.04c.01,0,.03.02.04.03,0,.01.01.03.01.04,0,.03-.02.06-.06.08h.05v.12h-.68v-.12h0Zm.35-.03s.01.02.03.03c.02,0,.05.01.08.01s.06,0,.08-.01c.02,0,.03-.02.03-.03s-.01-.02-.03-.03c-.02,0-.05-.01-.08-.01-.08,0-.11.01-.11.04Z"/>
      <path d="m25.41,16.44v-.1s.06.01.08.02.04.03.05.05c.01.02.02.04.02.07,0,.05-.02.09-.06.12-.04.03-.09.04-.15.04-.08,0-.14-.02-.18-.05-.04-.03-.05-.07-.05-.11,0-.05.02-.08.05-.11.04-.03.09-.04.15-.04h.05v.19h.07s.03-.02.03-.04-.02-.04-.05-.04h-.01Zm-.12,0h-.01s-.04,0-.06.01c-.01,0-.02.02-.02.03s0,.02.02.03c.01,0,.03.01.06.01h.01v-.09h0Z"/>
      <path d="m24.86,16.27v-.12h.68v.12h-.68Z"/>
      <path d="m24.86,15.99v-.13l.26.13v.09l-.26-.09Z"/>
      <path d="m25.14,15.7l.09.05s-.03.04-.03.06v.02h.04s.01-.02.02-.04c.02-.03.03-.06.05-.07s.04-.02.07-.02c.04,0,.08.01.1.03.03.03.05.06.05.1,0,.05-.02.09-.05.13l-.08-.05s.03-.04.03-.06v-.03s-.01-.01-.03-.01h-.02s-.01.02-.02.03c-.02.04-.03.06-.05.07-.02.02-.05.03-.08.03-.04,0-.07-.01-.1-.04-.02-.03-.03-.06-.03-.1s.01-.08.04-.11h0Z"/>
      <path d="m24.91,15.46v-.33h.12v.1h.52v.13h-.52v.1s-.12,0-.12,0Z"/>
      <path d="m25.11,14.94c0-.06.02-.1.07-.13.04-.02.09-.04.16-.04.06,0,.11.01.15.04.04.03.07.07.07.13,0,.04,0,.07-.03.09-.02.03-.05.05-.1.06-.03,0-.06.01-.1.01-.06,0-.11-.01-.15-.04-.04-.03-.07-.07-.07-.13h0Zm.11,0s0,.02.03.03c.02,0,.05.01.08.01s.06,0,.08-.01c.02,0,.03-.02.03-.03s-.01-.02-.03-.03c-.02,0-.05-.01-.08-.01s-.06,0-.08.01c-.02,0-.03.02-.03.03Z"/>
      <path d="m25,14.7v-.12h.12v-.05h.1v.05h.33v.12h-.33v.04h-.1v-.04h-.12Z"/>
      <path d="m25.12,14.31v-.12h.42v.12h-.05s.06.05.06.08c0,.02,0,.03-.01.04,0,.01-.02.03-.04.03-.04.03-.1.04-.17.04s-.13-.01-.17-.04c-.01,0-.03-.02-.03-.03s-.01-.03-.01-.05c0-.03.02-.06.06-.08h-.06Zm.1.03s.01.02.03.03c.02,0,.05.01.08.01s.06,0,.08-.01c.02,0,.03-.02.03-.03s0-.02-.02-.03h-.09s-.06,0-.08.01c-.02,0-.03.02-.03.03h0Z"/>
      <path d="m24.86,14.11v-.12h.68v.12h-.68Z"/>
      <path d="m24.93,13.45h.12s-.04.06-.04.09c0,.02,0,.03.02.05.01.01.03.02.04.02.02,0,.03,0,.05-.01.01,0,.03-.03.05-.05.02-.03.04-.05.05-.07.01-.01.02-.02.03-.03.03-.02.06-.03.1-.03s.08,0,.11.03c.03.02.05.04.07.08.01.02.02.05.02.08,0,.04-.01.08-.03.11h-.12s.03-.07.03-.09,0-.04-.02-.06c-.01-.01-.03-.02-.05-.02s-.03,0-.04.01c-.01,0-.03.03-.05.06-.02.03-.04.06-.06.08-.03.03-.07.04-.12.04-.06,0-.1-.02-.14-.05-.03-.03-.05-.07-.05-.12,0-.04.01-.08.03-.11h0Z"/>
      <path d="m25.11,13.2c0-.06.02-.1.07-.13.04-.02.09-.04.16-.04.06,0,.11.01.15.04.04.03.07.07.07.13,0,.04,0,.07-.03.09-.02.03-.05.05-.1.06-.03,0-.06.01-.1.01-.06,0-.11-.01-.15-.04-.04-.03-.07-.07-.07-.13h0Zm.11,0s0,.02.03.03c.02,0,.05.01.08.01s.06,0,.08-.01c.02,0,.03-.02.03-.03s-.01-.02-.03-.03c-.02,0-.05-.01-.08-.01s-.06,0-.08.01c-.02,0-.03.02-.03.03Z"/>
      <path d="m24.86,12.97v-.12h.68v.12h-.68Z"/>
      <path d="m25.12,12.78v-.12h.3s.02-.01.02-.03,0-.02-.02-.02h-.3v-.12h.33s.02,0,.04.02c.02.01.03.03.05.05.01.02.02.05.02.08,0,.04-.01.07-.03.1-.02.03-.05.04-.08.05h-.33Z"/>
      <path d="m25,12.39v-.12h.12v-.05h.1v.05h.33v.12h-.33v.04h-.1v-.04h-.12Z"/>
      <path d="m24.91,12.11s0-.04.02-.05c.01-.01.03-.02.05-.02s.04,0,.06.03c.01.01.02.03.02.05s0,.04-.02.05c-.01.01-.03.02-.05.02s-.04,0-.05-.02c-.01-.02-.02-.03-.02-.06h-.01Zm.2.06v-.12h.42v.12h-.42Z"/>
      <path d="m25.11,11.83c0-.06.02-.1.07-.13.04-.02.09-.04.16-.04.06,0,.11.01.15.04.04.03.07.07.07.13,0,.04,0,.07-.03.09-.02.03-.05.05-.1.06-.03,0-.06.01-.1.01-.06,0-.11-.01-.15-.04-.04-.03-.07-.07-.07-.13h0Zm.11,0s0,.02.03.03c.02,0,.05.01.08.01s.06,0,.08-.01c.02,0,.03-.02.03-.03s-.01-.02-.03-.03c-.02,0-.05-.01-.08-.01s-.06,0-.08.01c-.02,0-.03.02-.03.03Z"/>
      <path d="m25.12,11.6v-.12h.07s-.03-.02-.04-.03c-.02-.02-.03-.05-.03-.07,0-.01,0-.03.01-.04,0-.01.02-.02.03-.03.02,0,.06-.01.11-.01h.28v.12h-.3s-.01.01-.01.02,0,.02.02.03h.29v.12h-.43Z"/>
    </g>
    <polygon points="24.65 12.66 24.65 12.19 23.77 12.43 24.65 12.66"/>
    <path d="m22.26,17.7h.69v-1.64h-.69v1.64Zm1.7,0h.69v-1.64h-.69v.89h-.16v-.89h-.69v1.64h.85Z"/>
  </g>
  <rect class="cls-2" x="1.67" y=".91" width="17.02" height="6.03" rx="1.62" ry="1.62"/>
  <g>
    <path d="m4.54,5.95v-2.19c0-.28-.09-.42-.26-.42-.05,0-.09.05-.13.15l-.76,2.46h-.39v-1.98s-.09.03-.17.03c-.13,0-.24-.05-.33-.14-.09-.09-.13-.21-.13-.34s.05-.25.14-.35c.09-.1.21-.15.34-.15.15,0,.28.05.37.14.09.1.14.22.14.38v.99c0,.07,0,.17-.02.3-.01.13-.03.3-.05.5h.01c.01-.08.03-.17.06-.27.02-.1.05-.21.08-.34l.41-1.39c.07-.22.21-.33.44-.33.39,0,.59.22.59.67v2.26h-.35Zm-1.49-2.43c0-.14-.07-.21-.2-.21s-.2.07-.2.21.07.21.2.21.2-.07.2-.21Z"/>
    <path d="m4.73,2.51c-.22.16-.48.24-.77.24-.13,0-.26-.02-.37-.05.14-.08.23-.2.27-.34-.01,0-.04,0-.08,0-.11,0-.21-.04-.29-.12s-.12-.18-.12-.3.04-.21.12-.3.17-.12.29-.12c.13,0,.24.04.32.13.08.09.12.19.13.32,0,.19-.04.35-.12.49.21-.02.37-.11.5-.25.14-.15.2-.31.2-.47h.34c-.03.32-.17.58-.41.76Zm-.78-.56c0-.12-.06-.18-.17-.18s-.17.06-.17.18.06.18.17.18.17-.06.17-.18Z"/>
    <path d="m6.83,5.95v-2.07c0-.18-.05-.32-.15-.43-.1-.11-.23-.17-.41-.17-.31,0-.51.17-.61.5h-.36c.06-.23.17-.42.34-.56s.39-.22.64-.22c.27,0,.48.07.65.22.17.15.25.35.25.59v2.13h-.35Z"/>
    <path d="m9.71,5.79c-.09.11-.27.16-.52.16h-1.27v-1.02c0-.21.09-.38.27-.5-.23-.06-.34-.21-.34-.43v-.46c0-.16.04-.29.14-.38.09-.1.21-.14.37-.14.13,0,.24.05.34.15.09.1.14.22.14.35s-.04.24-.13.34c-.09.09-.2.14-.33.14-.08,0-.14,0-.17-.03,0,.08.04.15.11.21.08.07.2.11.35.11h.21v.29h-.22c-.26,0-.39.12-.39.38v.71h.72c.2,0,.32-.02.38-.07.08-.06.12-.19.12-.39v-2.14h.35v2.21c0,.24-.05.41-.14.52Zm-1.13-2.27c0-.14-.07-.21-.2-.21s-.2.07-.2.21.07.21.2.21.2-.07.2-.21Z"/>
    <path d="m12.41,5.79c-.09.11-.27.16-.52.16h-1.29v-1.53c0-.16.05-.29.14-.38.09-.1.21-.14.37-.14.13,0,.24.05.34.15.09.1.14.22.14.35s-.04.24-.13.34c-.09.09-.2.14-.33.14-.08,0-.14,0-.17-.03v.82h.74c.2,0,.32-.02.38-.07.08-.06.12-.19.12-.39v-1.32c0-.17-.07-.32-.2-.43s-.29-.17-.48-.17c-.39,0-.64.17-.76.5h-.36c.16-.52.55-.78,1.15-.78.14,0,.27.02.4.06.12.04.23.09.32.17.09.07.16.16.21.26.05.1.08.21.08.34v1.45c0,.24-.05.41-.14.52Zm-1.09-1.4c0-.14-.07-.21-.2-.21s-.2.07-.2.21.07.21.2.21.2-.07.2-.21Z"/>
    <path d="m15.11,5.79c-.09.11-.27.16-.52.16h-1.29v-1.53c0-.16.05-.29.14-.38.09-.1.21-.14.37-.14.13,0,.24.05.34.15.09.1.14.22.14.35s-.04.24-.13.34c-.09.09-.2.14-.33.14-.08,0-.14,0-.17-.03v.82h.74c.2,0,.32-.02.38-.07.08-.06.12-.19.12-.39v-1.32c0-.17-.07-.32-.2-.43s-.29-.17-.48-.17c-.39,0-.64.17-.76.5h-.36c.16-.52.55-.78,1.15-.78.14,0,.27.02.4.06.12.04.23.09.32.17.09.07.16.16.21.26.05.1.08.21.08.34v1.45c0,.24-.05.41-.14.52Zm-1.09-1.4c0-.14-.07-.21-.2-.21s-.2.07-.2.21.07.21.2.21.2-.07.2-.21Z"/>
    <path d="m17.56,5.95v-2.07c0-.19-.07-.34-.21-.45-.12-.1-.26-.15-.43-.15-.28,0-.5.1-.67.29.09.04.17.08.25.13.08.05.14.11.2.18-.24.09-.36.26-.36.51v1.56h-.35v-1.57c0-.27.1-.44.29-.5-.05-.04-.12-.08-.2-.12-.08-.04-.17-.09-.28-.13.27-.42.64-.63,1.13-.63.28,0,.51.07.69.22.2.16.29.38.29.67v2.06h-.35Z"/>
  </g>
</svg>