<?xml version="1.0" encoding="UTF-8"?>
<svg id="Layer_1" data-name="Layer 1" xmlns="http://www.w3.org/2000/svg" xmlns:xlink="http://www.w3.org/1999/xlink" viewBox="0 0 26.46 18.57">
  <defs>
    <style>
      .cls-1 {
        fill: url(#linear-gradient);
      }

      .cls-2 {
        stroke: #000;
        stroke-miterlimit: 10;
        stroke-width: .2px;
      }

      .cls-2, .cls-3 {
        fill: #fff;
      }

      .cls-4 {
        fill: none;
      }

      .cls-4, .cls-3 {
        stroke: #231f20;
        stroke-width: .06px;
      }

      .cls-5 {
        fill: url(#linear-gradient-3);
      }

      .cls-6 {
        fill: url(#linear-gradient-2);
      }
    </style>
    <linearGradient id="linear-gradient" x1=".03" y1="166.35" x2="20.42" y2="166.35" gradientTransform="translate(0 178.3) scale(1 -1)" gradientUnits="userSpaceOnUse">
      <stop offset="0" stop-color="#e6e6e6"/>
      <stop offset=".28" stop-color="#fff"/>
      <stop offset="1" stop-color="#a3a3a3"/>
    </linearGradient>
    <linearGradient id="linear-gradient-2" x1="7.79" y1="173.21" x2="12.66" y2="173.21" gradientTransform="translate(0 178.3) scale(1 -1)" gradientUnits="userSpaceOnUse">
      <stop offset="0" stop-color="#e6e6e6"/>
      <stop offset=".28" stop-color="#fff"/>
      <stop offset="1" stop-color="#000"/>
    </linearGradient>
    <linearGradient id="linear-gradient-3" x1=".03" y1="166.23" x2="26.46" y2="166.23" gradientTransform="translate(0 178.3) scale(1 -1)" gradientUnits="userSpaceOnUse">
      <stop offset="0" stop-color="#e6e6e6"/>
      <stop offset=".28" stop-color="#fff"/>
      <stop offset="1" stop-color="#a3a3a3"/>
    </linearGradient>
  </defs>
  <g>
    <path class="cls-1" d="m20.42,5.34H.03v8.18H.03c.02,2.78,4.58,5.04,10.19,5.04s10.17-2.25,10.19-5.04h0V5.34h.01Z"/>
    <path class="cls-3" d="m20.42,5.09c0,2.79-4.56,5.06-10.2,5.06S.03,7.88.03,5.09,4.59.03,10.22.03s10.2,2.26,10.2,5.06Z"/>
    <path class="cls-6" d="m12.66,5.09c0,.67-1.09,1.21-2.44,1.21s-2.44-.54-2.44-1.21,1.09-1.21,2.44-1.21,2.44.54,2.44,1.21Z"/>
    <path class="cls-4" d="m13.26,5.09c0,.83-1.36,1.51-3.04,1.51s-3.04-.68-3.04-1.51,1.36-1.51,3.04-1.51,3.04.68,3.04,1.51Z"/>
    <path class="cls-4" d="m13.66,5.09c0,.94-1.54,1.71-3.43,1.71s-3.43-.76-3.43-1.71,1.54-1.7,3.43-1.7,3.43.76,3.43,1.7Z"/>
    <path class="cls-4" d="m14.08,5.09c0,1.06-1.73,1.91-3.85,1.91s-3.85-.86-3.85-1.91,1.73-1.91,3.85-1.91,3.85.86,3.85,1.91Z"/>
    <path class="cls-4" d="m15.15,5.09c0,1.35-2.21,2.45-4.93,2.45s-4.93-1.1-4.93-2.45,2.21-2.45,4.93-2.45,4.93,1.1,4.93,2.45Z"/>
    <path class="cls-4" d="m16.23,5.09c0,1.64-2.69,2.98-6,2.98s-6-1.33-6-2.98,2.69-2.98,6-2.98,6,1.33,6,2.98Z"/>
    <path class="cls-4" d="m17.38,5.09c0,1.96-3.2,3.55-7.16,3.55s-7.16-1.59-7.16-3.55,3.2-3.55,7.16-3.55,7.16,1.59,7.16,3.55Z"/>
    <path class="cls-4" d="m18.61,5.09c0,2.3-3.76,4.16-8.39,4.16S1.83,7.39,1.83,5.09,5.59.93,10.22.93s8.39,1.86,8.39,4.16Z"/>
    <path class="cls-4" d="m19.45,5.09c0,2.53-4.13,4.58-9.23,4.58S1,7.62,1,5.09,5.13.51,10.22.51s9.23,2.05,9.23,4.58Z"/>
    <line class="cls-4" x1="20.43" y1="5.16" x2="20.43" y2="10.21"/>
    <path class="cls-5" d="m26.46,10.23v8.34H9.81S.82,18.43.03,14.54V5.56s.86,4.26,10.08,4.67h16.35"/>
  </g>
  <g>
    <polyline points="16.93 13.19 17.97 17.2 19.07 17.2 20.12 13.19 19.05 13.19 18.52 15.66 17.97 13.19 16.93 13.19"/>
    <polyline points="23.04 17.19 22 13.18 20.9 13.18 19.86 17.19 20.92 17.19 21.45 14.72 22 17.18 23.05 17.18"/>
    <g>
      <path d="m25.66,12.77h-.17v-.86h-.18v-.2h.35v1.06Z"/>
      <path d="m25,12.42h-.16v-.71h.16v.08c.03-.06.06-.09.11-.09.02,0,.04,0,.06.02.02.01.03.03.05.06.04.07.05.17.05.29s-.02.22-.05.29c-.01.02-.03.04-.05.06-.02.01-.04.02-.06.02-.05,0-.08-.03-.11-.1v.09h0Zm.04-.16s.03-.02.04-.05.02-.08.02-.14,0-.11-.02-.14-.02-.05-.04-.05c-.01,0-.03.01-.04.04,0,.01,0,.03-.01.06v.09c0,.06,0,.11.01.14,0,.03.02.05.04.05Z"/>
      <path d="m24.57,12.84v-.51c-.03.07-.06.1-.11.1-.02,0-.04,0-.06-.02-.02-.01-.04-.03-.05-.06-.03-.07-.05-.16-.05-.29s.02-.22.05-.29c.01-.02.03-.04.05-.06.02-.01.04-.02.06-.02.04,0,.08.03.11.09v-.08h.16v1.13h-.16Zm-.04-.59s.03-.02.04-.05.01-.08.01-.14,0-.11-.01-.14c0-.03-.02-.05-.04-.05s-.03.02-.04.05-.02.08-.02.14c0,.13.02.19.06.19Z"/>
      <path d="m23.96,11.93h-.14c0-.05.02-.1.03-.13s.03-.06.06-.08c.03-.02.06-.03.1-.03.07,0,.12.03.16.09.04.06.06.15.06.26,0,.13-.02.23-.07.3-.04.06-.09.09-.15.09s-.11-.03-.15-.09c-.04-.06-.05-.14-.05-.25v-.08h.26v-.11s-.03-.06-.05-.06c-.03,0-.05.03-.05.09h-.01Zm0,.2v.02s0,.07.02.09c.01.02.03.03.04.03s.03-.01.04-.03c.01-.02.02-.05.02-.09v-.02h-.12Z"/>
      <path d="m23.72,12.84h-.16v-1.13h.16v1.13Z"/>
      <path d="m23.35,12.84h-.17l.17-.43h.12l-.12.43Z"/>
      <path d="m22.95,12.37l.07-.15s.05.05.08.05c.01,0,.02,0,.03-.01,0,0,.01-.02.01-.04,0-.01,0-.03-.01-.03s-.02-.02-.05-.04c-.04-.03-.08-.06-.09-.09-.02-.03-.03-.07-.03-.12,0-.07.02-.13.05-.17.04-.05.08-.08.14-.08s.12.03.18.08l-.07.14s-.06-.04-.08-.04-.03,0-.04.02c0,.01-.01.02-.01.04,0,.01,0,.03.01.04,0,0,.02.02.04.03.05.03.08.06.1.08.03.04.04.08.04.14,0,.07-.02.12-.06.16-.03.03-.08.05-.13.05s-.11-.02-.16-.06h-.02Z"/>
      <path d="m22.62,12.77h-.44v-.19h.14v-.86h.17v.86h.14v.19h0Z"/>
      <path d="m21.92,12.43c-.08,0-.13-.04-.17-.11-.03-.06-.05-.15-.05-.26s.02-.19.05-.25c.04-.07.1-.11.17-.11.05,0,.09.02.13.05.04.03.06.09.08.16.01.05.02.1.02.16,0,.1-.02.19-.05.25-.04.07-.09.11-.17.11h-.01Zm0-.18s.03-.02.04-.05.02-.08.02-.14,0-.11-.02-.14c-.01-.03-.02-.05-.04-.05s-.03.02-.04.05c0,.03-.01.08-.01.14s0,.11.01.14c0,.03.02.05.04.05Z"/>
      <path d="m21.6,12.61h-.16v-.2h-.07v-.16h.07v-.55h.16v.55h.06v.16h-.06v.2Z"/>
      <path d="m21.06,12.42h-.16v-.71h.16v.08c.03-.06.06-.09.11-.09.02,0,.04,0,.06.02.02.01.03.03.05.06.04.07.05.17.05.29s-.02.22-.05.29c-.01.02-.03.04-.05.06-.02.01-.04.02-.06.02-.05,0-.08-.03-.11-.1v.09h0Zm.04-.16s.03-.02.04-.05.02-.08.02-.14,0-.11-.02-.14c-.01-.03-.02-.05-.04-.05-.01,0-.03.01-.04.04,0,.01,0,.03-.01.06v.09c0,.06,0,.11.01.14,0,.03.02.05.04.05Z"/>
      <path d="m20.79,12.84h-.16v-1.13h.16v1.13Z"/>
      <path d="m19.9,12.73v-.2s.09.07.13.07c.03,0,.05,0,.06-.03.02-.02.02-.04.02-.07s0-.05-.02-.08c-.01-.02-.04-.05-.07-.08-.04-.04-.07-.07-.09-.09s-.03-.04-.04-.06c-.03-.05-.04-.11-.04-.17s.01-.13.04-.19c.02-.05.06-.09.1-.11.03-.02.07-.03.11-.03.06,0,.11.02.15.05v.2s-.09-.06-.13-.06c-.03,0-.06.01-.07.03-.02.02-.03.05-.03.08s0,.05.02.07c.01.02.04.04.09.08.04.04.08.07.1.11.04.05.06.12.06.21s-.02.17-.07.23c-.04.05-.09.08-.16.08-.05,0-.1-.02-.15-.05h-.01Z"/>
      <path d="m19.56,12.43c-.08,0-.13-.04-.17-.11-.03-.06-.05-.15-.05-.26s.02-.19.05-.25c.04-.07.1-.11.17-.11.05,0,.09.02.13.05.04.03.06.09.08.16.01.05.02.1.02.16,0,.1-.02.19-.05.25-.04.07-.09.11-.17.11h-.01Zm0-.18s.03-.02.04-.05.02-.08.02-.14,0-.11-.02-.14c0-.03-.02-.05-.04-.05s-.03.02-.04.05c0,.03-.01.08-.01.14s0,.11.01.14c0,.03.02.05.04.05Z"/>
      <path d="m19.26,12.84h-.16v-1.13h.16v1.13Z"/>
      <path d="m18.99,12.42h-.16v-.51s-.02-.03-.03-.03-.03,0-.03.03v.52h-.16v-.55s.01-.04.02-.06c.02-.03.04-.06.07-.08.03-.02.07-.03.11-.03.05,0,.1.02.14.06.04.03.06.08.06.13v.53h-.02Z"/>
      <path d="m18.46,12.61h-.16v-.2h-.07v-.16h.07v-.55h.16v.55h.06v.16h-.06v.2Z"/>
      <path d="m18.08,12.75s-.05-.01-.07-.04c-.02-.02-.03-.05-.03-.09s.01-.07.03-.09.04-.03.07-.03.05.01.07.04c.02.02.03.05.03.09s-.01.06-.03.09c-.02.02-.05.04-.07.04h0Zm.09-.34h-.16v-.71h.16v.71Z"/>
      <path d="m17.7,12.43c-.08,0-.13-.04-.17-.11-.03-.06-.05-.15-.05-.26s.02-.19.05-.25c.04-.07.1-.11.17-.11.05,0,.09.02.13.05.04.03.06.09.08.16.01.05.02.1.02.16,0,.1-.02.19-.05.25-.04.07-.09.11-.17.11h-.01Zm0-.18s.03-.02.04-.05.02-.08.02-.14,0-.11-.02-.14c-.01-.03-.02-.05-.04-.05s-.03.02-.04.05c0,.03-.01.08-.01.14s0,.11.01.14c0,.03.02.05.04.05Z"/>
      <path d="m17.39,12.42h-.16v-.11s-.03.06-.04.07c-.03.03-.06.05-.1.05-.02,0-.04,0-.05-.02-.02-.01-.03-.03-.04-.05-.01-.03-.02-.09-.02-.18v-.47h.16v.5s.02.02.03.02c.02,0,.03-.01.04-.04v-.48h.16v.71h.02Z"/>
    </g>
    <polygon points="18.83 13.19 18.19 13.19 18.52 14.67 18.83 13.19"/>
    <path d="m25.66,17.18v-1.16h-2.23v1.16h2.23Zm0-2.84v-1.16h-2.23v1.16h1.21v.26h-1.21v1.16h2.23v-1.42Z"/>
  </g>
  <g>
    <polyline points="6.79 13.16 7.84 17.17 8.93 17.17 9.98 13.16 8.91 13.16 8.38 15.63 7.84 13.16 6.79 13.16"/>
    <polyline points="12.91 17.15 11.86 13.15 10.77 13.15 9.72 17.15 10.79 17.15 11.32 14.68 11.86 17.15 12.91 17.15"/>
    <g>
      <path d="m15.53,12.74h-.17v-.86h-.18v-.2h.35v1.06Z"/>
      <path d="m14.86,12.39h-.16v-.71h.16v.08c.03-.06.06-.09.11-.09.02,0,.04,0,.06.02.02.01.03.03.05.06.04.07.05.17.05.29s-.02.22-.05.29c-.01.02-.03.04-.05.06-.02.01-.04.02-.06.02-.05,0-.08-.03-.11-.1v.09h0Zm.04-.16s.03-.02.04-.05.02-.08.02-.14,0-.11-.02-.14-.02-.05-.04-.05c-.01,0-.03.01-.04.04,0,.01,0,.03-.01.06v.09c0,.06,0,.11.01.14,0,.03.02.05.04.05Z"/>
      <path d="m14.43,12.81v-.51c-.03.07-.06.1-.11.1-.02,0-.04,0-.06-.02-.02-.01-.04-.03-.05-.06-.03-.07-.05-.16-.05-.29s.02-.22.05-.29c.01-.02.03-.04.05-.06.02-.01.04-.02.06-.02.04,0,.08.03.11.09v-.08h.16v1.13h-.16Zm-.04-.59s.03-.02.04-.05.01-.08.01-.14,0-.11-.01-.14c0-.03-.02-.05-.04-.05s-.03.02-.04.05-.02.08-.02.14c0,.13.02.19.06.19Z"/>
      <path d="m13.82,11.9h-.14c0-.05.02-.1.03-.13.01-.03.03-.06.06-.08.03-.02.06-.03.1-.03.07,0,.12.03.16.09s.06.15.06.26c0,.13-.02.23-.07.3-.04.06-.09.09-.15.09s-.11-.03-.15-.09-.05-.14-.05-.25v-.08h.26v-.11s-.03-.06-.05-.06c-.03,0-.05.03-.05.09h-.01Zm0,.2v.02s0,.07.02.09c.01.02.03.03.04.03s.03-.01.04-.03c.01-.02.02-.05.02-.09v-.02h-.12Z"/>
      <path d="m13.59,12.81h-.16v-1.13h.16v1.13Z"/>
      <path d="m13.22,12.81h-.17l.17-.43h.12l-.12.43Z"/>
      <path d="m12.82,12.34l.07-.15s.05.05.08.05c.01,0,.02,0,.03-.01,0,0,.01-.02.01-.04,0-.01,0-.03-.01-.03s-.02-.02-.05-.04c-.04-.03-.08-.06-.09-.09-.02-.03-.03-.07-.03-.12,0-.07.02-.13.05-.17.04-.05.08-.08.14-.08s.12.03.18.08l-.07.14s-.06-.04-.08-.04-.03,0-.04.02c0,.01-.01.02-.01.04,0,.01,0,.03.01.04,0,0,.02.02.04.03.05.03.08.06.1.08.03.04.04.08.04.14,0,.07-.02.12-.06.16-.03.03-.08.05-.13.05s-.11-.02-.16-.06h-.02Z"/>
      <path d="m12.49,12.74h-.44v-.19h.14v-.86h.17v.86h.14v.19h-.01Z"/>
      <path d="m11.78,12.4c-.08,0-.13-.04-.17-.11-.03-.06-.05-.15-.05-.26s.02-.19.05-.25c.04-.07.1-.11.17-.11.05,0,.09.02.13.05s.06.09.08.16c.01.05.02.1.02.16,0,.1-.02.19-.05.25-.04.07-.09.11-.17.11h-.01Zm0-.18s.03-.02.04-.05.02-.08.02-.14,0-.11-.02-.14c-.01-.03-.02-.05-.04-.05s-.03.02-.04.05c0,.03-.01.08-.01.14s0,.11.01.14c0,.03.02.05.04.05Z"/>
      <path d="m11.46,12.58h-.16v-.2h-.07v-.16h.07v-.55h.16v.55h.06v.16h-.06v.2Z"/>
      <path d="m10.93,12.39h-.16v-.71h.16v.08c.03-.06.06-.09.11-.09.02,0,.04,0,.06.02.02.01.03.03.05.06.04.07.05.17.05.29s-.02.22-.05.29c-.01.02-.03.04-.05.06-.02.01-.04.02-.06.02-.05,0-.08-.03-.11-.1v.09h0Zm.04-.16s.03-.02.04-.05.02-.08.02-.14,0-.11-.02-.14c-.01-.03-.02-.05-.04-.05-.01,0-.03.01-.04.04,0,.01,0,.03-.01.06v.09c0,.06,0,.11.01.14,0,.03.02.05.04.05Z"/>
      <path d="m10.66,12.81h-.16v-1.13h.16v1.13Z"/>
      <path d="m9.77,12.7v-.2s.09.07.13.07c.03,0,.05,0,.06-.03.02-.02.02-.04.02-.07s0-.05-.02-.08c-.01-.02-.04-.05-.07-.08l-.09-.09s-.03-.04-.04-.06c-.03-.05-.04-.11-.04-.17s.01-.13.04-.19c.02-.05.06-.09.1-.11.03-.02.07-.03.11-.03.06,0,.11.02.15.05v.2s-.09-.06-.13-.06c-.03,0-.06.01-.07.03-.02.02-.03.05-.03.08s0,.05.02.07c.01.02.04.04.09.08.04.04.08.07.1.11.04.05.06.12.06.21s-.02.17-.07.23c-.04.05-.09.08-.16.08-.05,0-.1-.02-.15-.05h-.01Z"/>
      <path d="m9.43,12.4c-.08,0-.13-.04-.17-.11-.03-.06-.05-.15-.05-.26s.02-.19.05-.25c.04-.07.1-.11.17-.11.05,0,.09.02.13.05s.06.09.08.16c.01.05.02.1.02.16,0,.1-.02.19-.05.25-.04.07-.09.11-.17.11h-.01Zm0-.18s.03-.02.04-.05.02-.08.02-.14,0-.11-.02-.14c0-.03-.02-.05-.04-.05s-.03.02-.04.05c0,.03-.01.08-.01.14s0,.11.01.14c0,.03.02.05.04.05Z"/>
      <path d="m9.12,12.81h-.16v-1.13h.16v1.13Z"/>
      <path d="m8.85,12.39h-.16v-.51s-.02-.03-.03-.03-.03,0-.03.03v.52h-.16v-.55s.01-.04.02-.06c.02-.03.04-.06.07-.08.03-.02.07-.03.11-.03.05,0,.1.02.14.06.04.03.06.08.06.13v.53h-.02Z"/>
      <path d="m8.32,12.58h-.16v-.2h-.07v-.16h.07v-.55h.16v.55h.06v.16h-.06v.2Z"/>
      <path d="m7.95,12.72s-.05-.01-.07-.04c-.02-.02-.03-.05-.03-.09s.01-.07.03-.09.04-.03.07-.03.05.01.07.04c.02.02.03.05.03.09s-.01.06-.03.09c-.02.02-.05.04-.07.04h0Zm.09-.34h-.16v-.71h.16v.71Z"/>
      <path d="m7.56,12.4c-.08,0-.13-.04-.17-.11-.03-.06-.05-.15-.05-.26s.02-.19.05-.25c.04-.07.1-.11.17-.11.05,0,.09.02.13.05s.06.09.08.16c.01.05.02.1.02.16,0,.1-.02.19-.05.25-.04.07-.09.11-.17.11h0Zm0-.18s.03-.02.04-.05c.01-.03.02-.08.02-.14s0-.11-.02-.14c-.01-.03-.02-.05-.04-.05s-.03.02-.04.05c0,.03-.01.08-.01.14s0,.11.01.14c0,.03.02.05.04.05Z"/>
      <path d="m7.25,12.39h-.16v-.11s-.03.06-.04.07c-.03.03-.06.05-.1.05-.02,0-.04,0-.05-.02-.02-.01-.03-.03-.04-.05-.01-.03-.02-.09-.02-.18v-.47h.16v.5s.02.02.03.02c.02,0,.03-.01.04-.04v-.48h.16v.71h.02Z"/>
    </g>
    <polygon points="8.7 13.16 8.05 13.16 8.38 14.64 8.7 13.16"/>
    <path d="m15.53,17.15v-1.16h-2.23v1.16h2.23Zm0-2.84v-1.16h-2.23v1.16h1.21v.26h-1.21v1.16h2.23v-1.16s0-.26,0-.26Z"/>
  </g>
  <rect class="cls-2" x="1.72" y="1.33" width="17.02" height="6.03" rx="1.62" ry="1.62"/>
  <g>
    <path d="m4.56,4.21c.19.05.29.18.29.38v1.1c0,.23-.05.4-.14.51-.09.11-.26.17-.5.17h-1.21v-.27c.14,0,.23-.02.28-.06s.07-.13.07-.27v-1.01c0-.1.08-.22.23-.35.16-.14.24-.27.24-.36,0-.06-.02-.11-.06-.16-.04-.05-.07-.08-.09-.08,0,0-.04.03-.1.09-.07.05-.1.08-.11.08-.02-.02-.05-.05-.1-.09-.05-.04-.12-.09-.2-.16l-.08.04c.15.1.22.23.22.41,0,.13-.04.25-.14.34-.09.09-.2.14-.33.14s-.24-.05-.33-.14c-.09-.09-.14-.21-.14-.34,0-.22.11-.4.33-.54.21-.13.36-.2.46-.2.05,0,.14.07.29.2.17-.14.27-.2.29-.2.06,0,.14.06.24.19.11.14.17.27.17.4,0,.12-.07.26-.22.42-.15.15-.22.27-.22.36v1.27h.28c.14,0,.25,0,.3-.02.11-.03.18-.1.2-.2.01-.05.02-.13.02-.24v-.93c0-.21-.12-.32-.35-.32v-.25c.32-.12.48-.35.48-.72h.36c0,.36-.14.62-.43.8Zm-1.53-.04c0-.14-.07-.21-.2-.21s-.2.07-.2.21.07.21.2.21.2-.07.2-.21Z"/>
    <path d="m4.69,2.93c-.22.16-.48.24-.77.24-.13,0-.26-.02-.37-.05.14-.08.23-.2.27-.34-.01,0-.04,0-.08,0-.11,0-.21-.04-.29-.12s-.12-.18-.12-.3.04-.21.12-.3.17-.12.29-.12c.13,0,.24.04.32.13.08.09.12.19.13.32,0,.19-.04.35-.12.49.21-.02.37-.11.5-.25.14-.15.2-.31.2-.47h.34c-.03.32-.17.58-.41.76Zm-.78-.56c0-.12-.06-.18-.17-.18s-.17.06-.17.18.06.18.17.18.17-.06.17-.18Z"/>
    <path d="m6.8,6.37v-2.07c0-.18-.05-.32-.15-.43-.1-.11-.23-.17-.41-.17-.31,0-.51.17-.61.5h-.36c.06-.23.17-.42.34-.56s.39-.22.64-.22c.27,0,.48.07.65.22.17.15.25.35.25.59v2.13h-.35Z"/>
    <path d="m9.67,6.21c-.09.11-.27.16-.52.16h-1.27v-1.02c0-.21.09-.38.27-.5-.23-.06-.34-.21-.34-.43v-.46c0-.16.04-.29.14-.38.09-.1.21-.14.37-.14.13,0,.24.05.34.15.09.1.14.22.14.35s-.04.24-.13.34c-.09.09-.2.14-.33.14-.08,0-.14,0-.17-.03,0,.08.04.15.11.21.08.07.2.11.35.11h.21v.29h-.22c-.26,0-.39.12-.39.38v.71h.72c.2,0,.32-.02.38-.07.08-.06.12-.19.12-.39v-2.14h.35v2.21c0,.24-.05.41-.14.52Zm-1.13-2.27c0-.14-.07-.21-.2-.21s-.2.07-.2.21.07.21.2.21.2-.07.2-.21Z"/>
    <path d="m12.37,6.21c-.09.11-.27.16-.52.16h-1.29v-1.53c0-.16.05-.29.14-.38.09-.1.21-.14.37-.14.13,0,.24.05.34.15.09.1.14.22.14.35s-.04.24-.13.34c-.09.09-.2.14-.33.14-.08,0-.14,0-.17-.03v.82h.74c.2,0,.32-.02.38-.07.08-.06.12-.19.12-.39v-1.32c0-.17-.07-.32-.2-.43s-.29-.17-.48-.17c-.39,0-.64.17-.76.5h-.36c.16-.52.55-.78,1.15-.78.14,0,.27.02.4.06.12.04.23.09.32.17.09.07.16.16.21.26.05.1.08.21.08.34v1.45c0,.24-.05.41-.14.52Zm-1.09-1.4c0-.14-.07-.21-.2-.21s-.2.07-.2.21.07.21.2.21.2-.07.2-.21Z"/>
    <path d="m15.08,6.21c-.09.11-.27.16-.52.16h-1.29v-1.53c0-.16.05-.29.14-.38.09-.1.21-.14.37-.14.13,0,.24.05.34.15.09.1.14.22.14.35s-.04.24-.13.34c-.09.09-.2.14-.33.14-.08,0-.14,0-.17-.03v.82h.74c.2,0,.32-.02.38-.07.08-.06.12-.19.12-.39v-1.32c0-.17-.07-.32-.2-.43s-.29-.17-.48-.17c-.39,0-.64.17-.76.5h-.36c.16-.52.55-.78,1.15-.78.14,0,.27.02.4.06.12.04.23.09.32.17.09.07.16.16.21.26.05.1.08.21.08.34v1.45c0,.24-.05.41-.14.52Zm-1.09-1.4c0-.14-.07-.21-.2-.21s-.2.07-.2.21.07.21.2.21.2-.07.2-.21Z"/>
    <path d="m17.53,6.37v-2.07c0-.19-.07-.34-.21-.45-.12-.1-.26-.15-.43-.15-.28,0-.5.1-.67.29.09.04.17.08.25.13.08.05.14.11.2.18-.24.09-.36.26-.36.51v1.56h-.35v-1.57c0-.27.1-.44.29-.5-.05-.04-.12-.08-.2-.12-.08-.04-.17-.09-.28-.13.27-.42.64-.63,1.13-.63.28,0,.51.07.69.22.2.16.29.38.29.67v2.06h-.35Z"/>
  </g>
</svg>