<?xml version="1.0" encoding="UTF-8"?>
<svg id="Layer_1" data-name="Layer 1" xmlns="http://www.w3.org/2000/svg" xmlns:xlink="http://www.w3.org/1999/xlink" viewBox="0 0 26.46 18.57">
  <defs>
    <style>
      .cls-1 {
        fill: url(#linear-gradient);
      }

      .cls-2 {
        stroke-width: .16px;
      }

      .cls-2, .cls-3 {
        stroke: #000;
        stroke-miterlimit: 10;
      }

      .cls-2, .cls-4 {
        fill: none;
      }

      .cls-3 {
        stroke-width: .2px;
      }

      .cls-3, .cls-5 {
        fill: #fff;
      }

      .cls-4, .cls-5 {
        stroke: #231f20;
        stroke-width: .06px;
      }

      .cls-6 {
        fill: url(#linear-gradient-3);
      }

      .cls-7 {
        fill: url(#linear-gradient-2);
      }
    </style>
    <linearGradient id="linear-gradient" x1=".03" y1="111.77" x2="20.42" y2="111.77" gradientTransform="translate(0 123.72) scale(1 -1)" gradientUnits="userSpaceOnUse">
      <stop offset="0" stop-color="#e6e6e6"/>
      <stop offset=".28" stop-color="#fff"/>
      <stop offset="1" stop-color="#a3a3a3"/>
    </linearGradient>
    <linearGradient id="linear-gradient-2" x1="7.79" y1="118.63" x2="12.66" y2="118.63" gradientTransform="translate(0 123.72) scale(1 -1)" gradientUnits="userSpaceOnUse">
      <stop offset="0" stop-color="#e6e6e6"/>
      <stop offset=".28" stop-color="#fff"/>
      <stop offset="1" stop-color="#000"/>
    </linearGradient>
    <linearGradient id="linear-gradient-3" x1=".03" y1="111.66" x2="26.46" y2="111.66" xlink:href="#linear-gradient"/>
  </defs>
  <g>
    <path class="cls-1" d="m20.42,5.34H.03v8.18H.03c.02,2.78,4.58,5.04,10.19,5.04s10.17-2.25,10.19-5.04h0V5.34h.01Z"/>
    <path class="cls-5" d="m20.42,5.09c0,2.79-4.56,5.06-10.2,5.06S.03,7.88.03,5.09,4.59.03,10.22.03s10.2,2.26,10.2,5.06Z"/>
    <path class="cls-7" d="m12.66,5.09c0,.67-1.09,1.21-2.44,1.21s-2.44-.54-2.44-1.21,1.09-1.21,2.44-1.21,2.44.54,2.44,1.21Z"/>
    <path class="cls-4" d="m13.26,5.09c0,.83-1.36,1.51-3.04,1.51s-3.04-.68-3.04-1.51,1.36-1.51,3.04-1.51,3.04.68,3.04,1.51Z"/>
    <path class="cls-4" d="m13.66,5.09c0,.94-1.54,1.71-3.43,1.71s-3.43-.76-3.43-1.71,1.54-1.7,3.43-1.7,3.43.76,3.43,1.7Z"/>
    <path class="cls-4" d="m14.08,5.09c0,1.06-1.73,1.91-3.85,1.91s-3.85-.86-3.85-1.91,1.73-1.91,3.85-1.91,3.85.86,3.85,1.91Z"/>
    <path class="cls-4" d="m15.15,5.09c0,1.35-2.21,2.45-4.93,2.45s-4.93-1.1-4.93-2.45,2.21-2.45,4.93-2.45,4.93,1.1,4.93,2.45Z"/>
    <path class="cls-4" d="m16.23,5.09c0,1.64-2.69,2.98-6,2.98s-6-1.33-6-2.98,2.69-2.98,6-2.98,6,1.33,6,2.98Z"/>
    <path class="cls-4" d="m17.38,5.09c0,1.96-3.2,3.55-7.16,3.55s-7.16-1.59-7.16-3.55,3.2-3.55,7.16-3.55,7.16,1.59,7.16,3.55Z"/>
    <path class="cls-4" d="m18.61,5.09c0,2.3-3.76,4.16-8.39,4.16S1.83,7.39,1.83,5.09,5.59.93,10.22.93s8.39,1.86,8.39,4.16Z"/>
    <path class="cls-4" d="m19.45,5.09c0,2.53-4.13,4.58-9.23,4.58S1,7.62,1,5.09,5.13.51,10.22.51s9.23,2.05,9.23,4.58Z"/>
    <line class="cls-4" x1="20.43" y1="5.16" x2="20.43" y2="10.21"/>
    <path class="cls-6" d="m26.46,10.23v8.34H9.81S.82,18.43.03,14.54V5.56s.86,4.26,10.08,4.67h16.35"/>
  </g>
  <g>
    <path d="m6.27,11.97c.26-.05.77-.1,1.27-.1.6,0,.97.07,1.29.28.3.18.52.52.52.98s-.23.84-.72,1.05h0c.5.16.86.6.86,1.23,0,.46-.18.81-.45,1.06-.32.29-.84.45-1.71.45-.48,0-.84-.04-1.06-.07v-4.88Zm.97,1.9h.32c.52,0,.79-.24.79-.61s-.25-.57-.7-.57c-.22,0-.34.01-.42.03v1.16h0Zm0,2.2c.1.01.21.01.38.01.44,0,.84-.2.84-.72,0-.49-.39-.69-.88-.69h-.34v1.4Z"/>
    <rect class="cls-2" x="5.5" y="10.72" width="4.76" height="7.35"/>
  </g>
  <g>
    <path d="m11.81,11.98h2.65v.92h-1.67v1.13h1.56v.91h-1.56v2h-.98s0-4.96,0-4.96Z"/>
    <rect class="cls-2" x="10.75" y="10.72" width="4.76" height="7.35"/>
  </g>
  <g>
    <path d="m16.69,11.97c.26-.05.77-.1,1.27-.1.6,0,.97.07,1.29.28.3.18.52.52.52.98s-.23.84-.72,1.05h0c.5.16.86.6.86,1.23,0,.46-.18.81-.45,1.06-.32.29-.84.45-1.71.45-.48,0-.84-.04-1.06-.07v-4.88Zm.97,1.9h.32c.52,0,.79-.24.79-.61s-.25-.57-.7-.57c-.22,0-.34.01-.42.03v1.16h.01Zm0,2.2c.1.01.21.01.38.01.44,0,.84-.2.84-.72,0-.49-.39-.69-.88-.69h-.34v1.4Z"/>
    <rect class="cls-2" x="15.92" y="10.72" width="4.76" height="7.35"/>
  </g>
  <g>
    <path d="m22.23,11.98h2.65v.92h-1.67v1.13h1.56v.91h-1.56v2h-.98s0-4.96,0-4.96Z"/>
    <rect class="cls-2" x="21.17" y="10.72" width="4.76" height="7.35"/>
  </g>
  <rect class="cls-3" x="1.83" y="1.49" width="17.02" height="6.03" rx="1.62" ry="1.62"/>
  <g>
    <path d="m4.64,6.37c-.09.11-.27.16-.52.16h-1.02v-.27c.13,0,.23-.02.28-.06s.07-.13.07-.27v-1c0-.1.06-.21.19-.33.13-.13.2-.23.2-.31,0-.07-.03-.15-.08-.23-.07-.1-.15-.15-.25-.17-.04,0-.09,0-.15.02-.06.02-.1.04-.12.05.1.09.15.21.15.36,0,.13-.05.25-.14.34-.09.09-.2.14-.33.14s-.24-.05-.33-.14c-.09-.09-.14-.21-.14-.34,0-.21.13-.39.38-.52.27-.14.52-.21.76-.2.14,0,.27.09.38.23.13.14.19.3.19.46,0,.1-.06.21-.19.34-.12.13-.18.25-.18.35v1.26h.13c.2,0,.32-.02.38-.07.08-.06.12-.19.12-.39v-2.14h.35v2.21c0,.24-.05.41-.14.52Zm-1.51-2.04c0-.14-.07-.21-.2-.21s-.2.07-.2.21.07.21.2.21.2-.07.2-.21Z"/>
    <path d="m7.15,6.43c-.09.1-.21.14-.37.14-.13,0-.24-.05-.34-.15-.09-.1-.14-.22-.14-.35s.04-.24.13-.34c.09-.09.2-.14.33-.14.08,0,.14,0,.17.03v-1.16c0-.17-.06-.32-.19-.43-.12-.11-.28-.17-.46-.17-.36,0-.61.17-.73.5h-.36c.16-.52.53-.78,1.11-.78.14,0,.27.02.39.06.12.04.22.09.31.17s.16.16.21.26c.05.1.07.21.07.34v1.64c0,.16-.04.29-.14.38Zm-.18-.35c0-.14-.07-.21-.2-.21s-.2.07-.2.21.07.21.2.21.2-.07.2-.21Z"/>
    <path d="m9.23,6.54v-2.07c0-.18-.05-.32-.15-.43-.1-.11-.23-.17-.41-.17-.31,0-.51.17-.61.5h-.36c.06-.23.17-.42.34-.56s.39-.22.64-.22c.27,0,.48.07.65.22.17.15.25.35.25.59v2.13h-.35Z"/>
    <path d="m12.15,6.37c-.09.11-.27.16-.52.16h-1.29v-1.53c0-.16.05-.29.14-.38.09-.1.21-.14.37-.14.13,0,.24.05.34.15.09.1.14.22.14.35s-.04.24-.13.34c-.09.09-.2.14-.33.14-.08,0-.14,0-.17-.03v.82h.74c.2,0,.32-.02.38-.07.08-.06.12-.19.12-.39v-1.32c0-.17-.07-.32-.2-.43s-.29-.17-.48-.17c-.39,0-.64.17-.76.5h-.36c.16-.52.55-.78,1.15-.78.14,0,.27.02.4.06.12.04.23.09.32.17.09.07.16.16.21.26.05.1.08.21.08.34v1.45c0,.24-.05.41-.14.52Zm-1.09-1.4c0-.14-.07-.21-.2-.21s-.2.07-.2.21.07.21.2.21.2-.07.2-.21Z"/>
    <path d="m14.85,6.37c-.09.11-.27.16-.52.16h-1.29v-1.53c0-.16.05-.29.14-.38.09-.1.21-.14.37-.14.13,0,.24.05.34.15.09.1.14.22.14.35s-.04.24-.13.34c-.09.09-.2.14-.33.14-.08,0-.14,0-.17-.03v.82h.74c.2,0,.32-.02.38-.07.08-.06.12-.19.12-.39v-1.32c0-.17-.07-.32-.2-.43s-.29-.17-.48-.17c-.39,0-.64.17-.76.5h-.36c.16-.52.55-.78,1.15-.78.14,0,.27.02.4.06.12.04.23.09.32.17.09.07.16.16.21.26.05.1.08.21.08.34v1.45c0,.24-.05.41-.14.52Zm-1.09-1.4c0-.14-.07-.21-.2-.21s-.2.07-.2.21.07.21.2.21.2-.07.2-.21Z"/>
    <path d="m17.3,6.54v-2.07c0-.19-.07-.34-.21-.45-.12-.1-.26-.15-.43-.15-.28,0-.5.1-.67.29.09.04.17.08.25.13.08.05.14.11.2.18-.24.09-.36.26-.36.51v1.56h-.35v-1.57c0-.27.1-.44.29-.5-.05-.04-.12-.08-.2-.12-.08-.04-.17-.09-.28-.13.27-.42.64-.63,1.13-.63.28,0,.51.07.69.22.2.16.29.38.29.67v2.06h-.35Z"/>
  </g>
</svg>