<?xml version="1.0" encoding="UTF-8"?>
<svg id="Layer_1" data-name="Layer 1" xmlns="http://www.w3.org/2000/svg" xmlns:xlink="http://www.w3.org/1999/xlink" viewBox="0 0 26.46 18.57">
  <defs>
    <style>
      .cls-1 {
        fill: url(#linear-gradient);
      }

      .cls-2 {
        stroke: #000;
        stroke-miterlimit: 10;
        stroke-width: .2px;
      }

      .cls-2, .cls-3 {
        fill: #fff;
      }

      .cls-4 {
        fill: none;
      }

      .cls-4, .cls-3 {
        stroke: #231f20;
        stroke-width: .06px;
      }

      .cls-5 {
        fill: url(#linear-gradient-3);
      }

      .cls-6 {
        fill: url(#linear-gradient-2);
      }
    </style>
    <linearGradient id="linear-gradient" x1=".03" y1="166.35" x2="20.42" y2="166.35" gradientTransform="translate(0 178.3) scale(1 -1)" gradientUnits="userSpaceOnUse">
      <stop offset="0" stop-color="#e6e6e6"/>
      <stop offset=".28" stop-color="#fff"/>
      <stop offset="1" stop-color="#a3a3a3"/>
    </linearGradient>
    <linearGradient id="linear-gradient-2" x1="7.79" y1="173.21" x2="12.66" y2="173.21" gradientTransform="translate(0 178.3) scale(1 -1)" gradientUnits="userSpaceOnUse">
      <stop offset="0" stop-color="#e6e6e6"/>
      <stop offset=".28" stop-color="#fff"/>
      <stop offset="1" stop-color="#000"/>
    </linearGradient>
    <linearGradient id="linear-gradient-3" x1=".03" y1="166.23" x2="26.46" y2="166.23" xlink:href="#linear-gradient"/>
  </defs>
  <g>
    <path class="cls-1" d="m20.42,5.34H.03v8.18H.03c.02,2.78,4.58,5.04,10.19,5.04s10.17-2.25,10.19-5.04h0V5.34h.01Z"/>
    <path class="cls-3" d="m20.42,5.09c0,2.79-4.56,5.06-10.2,5.06S.03,7.88.03,5.09,4.59.03,10.22.03s10.2,2.26,10.2,5.06Z"/>
    <path class="cls-6" d="m12.66,5.09c0,.67-1.09,1.21-2.44,1.21s-2.44-.54-2.44-1.21,1.09-1.21,2.44-1.21,2.44.54,2.44,1.21Z"/>
    <path class="cls-4" d="m13.26,5.09c0,.83-1.36,1.51-3.04,1.51s-3.04-.68-3.04-1.51,1.36-1.51,3.04-1.51,3.04.68,3.04,1.51Z"/>
    <path class="cls-4" d="m13.66,5.09c0,.94-1.54,1.71-3.43,1.71s-3.43-.76-3.43-1.71,1.54-1.7,3.43-1.7,3.43.76,3.43,1.7Z"/>
    <path class="cls-4" d="m14.08,5.09c0,1.06-1.73,1.91-3.85,1.91s-3.85-.86-3.85-1.91,1.73-1.91,3.85-1.91,3.85.86,3.85,1.91Z"/>
    <path class="cls-4" d="m15.15,5.09c0,1.35-2.21,2.45-4.93,2.45s-4.93-1.1-4.93-2.45,2.21-2.45,4.93-2.45,4.93,1.1,4.93,2.45Z"/>
    <path class="cls-4" d="m16.23,5.09c0,1.64-2.69,2.98-6,2.98s-6-1.33-6-2.98,2.69-2.98,6-2.98,6,1.33,6,2.98Z"/>
    <path class="cls-4" d="m17.38,5.09c0,1.96-3.2,3.55-7.16,3.55s-7.16-1.59-7.16-3.55,3.2-3.55,7.16-3.55,7.16,1.59,7.16,3.55Z"/>
    <path class="cls-4" d="m18.61,5.09c0,2.3-3.76,4.16-8.39,4.16S1.83,7.39,1.83,5.09,5.59.93,10.22.93s8.39,1.86,8.39,4.16Z"/>
    <path class="cls-4" d="m19.45,5.09c0,2.53-4.13,4.58-9.23,4.58S1,7.62,1,5.09,5.13.51,10.22.51s9.23,2.05,9.23,4.58Z"/>
    <line class="cls-4" x1="20.43" y1="5.16" x2="20.43" y2="10.21"/>
    <path class="cls-5" d="m26.46,10.23v8.34H9.81S.82,18.43.03,14.54V5.56s.86,4.26,10.08,4.67h16.35"/>
  </g>
  <g>
    <polyline points="15.52 15.67 14.48 11.66 13.38 11.66 12.34 15.67 13.4 15.67 13.93 13.2 14.48 15.67 15.53 15.67"/>
    <polyline points="9.41 11.67 10.45 15.68 11.55 15.68 12.6 11.67 11.53 11.67 11 14.14 10.45 11.67 9.41 11.67"/>
    <g>
      <path d="m6.79,16.09h.17v.86h.18v.2h-.35v-1.06Z"/>
      <path d="m7.45,16.44h.16v.71h-.16v-.08c-.03.06-.06.09-.11.09-.02,0-.04,0-.06-.02-.02-.01-.03-.03-.05-.06-.04-.07-.05-.17-.05-.29s.02-.22.05-.29c.01-.02.03-.04.05-.06.02-.01.04-.02.06-.02.05,0,.08.03.11.1v-.09h0Zm-.04.16s-.03.02-.04.05c-.01.03-.02.08-.02.14s0,.11.02.14.02.05.04.05c.01,0,.03-.01.04-.04,0-.01,0-.03.01-.06v-.09c0-.06,0-.11-.01-.14,0-.03-.02-.05-.04-.05Z"/>
      <path d="m7.89,16.02v.51c.03-.07.06-.1.11-.1.02,0,.04,0,.06.02.02.01.04.03.05.06.03.07.05.16.05.29s-.02.22-.05.29c-.01.02-.03.04-.05.06-.02.01-.04.02-.06.02-.04,0-.08-.03-.11-.09v.08h-.16v-1.13h.16Zm.04.59s-.03.02-.04.05c-.01.03-.01.08-.01.14s0,.11.01.14c0,.03.02.05.04.05s.03-.02.04-.05c.01-.03.02-.08.02-.14,0-.13-.02-.19-.06-.19Z"/>
      <path d="m8.49,16.93h.14s-.02.1-.03.13c-.01.03-.03.06-.06.08-.03.02-.06.03-.1.03-.07,0-.12-.03-.16-.09s-.06-.15-.06-.26c0-.13.02-.23.07-.3.04-.06.09-.09.15-.09s.11.03.15.09.05.14.05.25v.08h-.26v.11s.03.06.05.06c.03,0,.05-.03.05-.09h.01Zm0-.2v-.02s0-.07-.02-.09c-.01-.02-.03-.03-.04-.03s-.03.01-.04.03-.02.05-.02.09v.02h.12Z"/>
      <path d="m8.73,16.02h.16v1.13h-.16v-1.13Z"/>
      <path d="m9.1,16.02h.17l-.17.43h-.12l.12-.43Z"/>
      <path d="m9.5,16.49l-.07.15s-.05-.05-.08-.05c-.01,0-.02,0-.03.01,0,0-.01.02-.01.04,0,.01,0,.03.01.03s.02.02.05.04c.04.03.08.06.09.09.02.03.03.07.03.12,0,.07-.02.13-.05.17-.04.05-.08.08-.14.08s-.12-.03-.18-.08l.07-.14s.06.04.08.04.03,0,.04-.02c0-.01.01-.02.01-.04,0-.01,0-.03-.01-.04,0,0-.02-.02-.04-.03-.05-.03-.08-.06-.1-.08-.03-.04-.04-.08-.04-.14,0-.07.02-.12.06-.16.03-.03.08-.05.13-.05s.11.02.16.06h.02Z"/>
      <path d="m9.83,16.09h.44v.19h-.14v.86h-.17v-.86h-.14v-.19h.01Z"/>
      <path d="m10.53,16.43c.08,0,.13.04.17.11.03.06.05.15.05.26s-.02.19-.05.25c-.04.07-.1.11-.17.11-.05,0-.09-.02-.13-.05-.04-.03-.06-.09-.08-.16-.01-.05-.02-.1-.02-.16,0-.1.02-.19.05-.25.04-.07.09-.11.17-.11h.01Zm0,.18s-.03.02-.04.05c-.01.03-.02.08-.02.14s0,.11.02.14c.01.03.02.05.04.05s.03-.02.04-.05c0-.03.01-.08.01-.14s0-.11-.01-.14c0-.03-.02-.05-.04-.05Z"/>
      <path d="m10.86,16.24h.16v.2h.07v.16h-.07v.55h-.16v-.55h-.06v-.16h.06v-.2Z"/>
      <path d="m11.39,16.44h.16v.71h-.16v-.08c-.03.06-.06.09-.11.09-.02,0-.04,0-.06-.02-.02-.01-.03-.03-.05-.06-.04-.07-.05-.17-.05-.29s.02-.22.05-.29c.01-.02.03-.04.05-.06.02-.01.04-.02.06-.02.05,0,.08.03.11.1v-.09h0Zm-.04.16s-.03.02-.04.05c-.01.03-.02.08-.02.14s0,.11.02.14c.01.03.02.05.04.05.01,0,.03-.01.04-.04,0-.01,0-.03.01-.06v-.09c0-.06,0-.11-.01-.14,0-.03-.02-.05-.04-.05Z"/>
      <path d="m11.66,16.02h.16v1.13h-.16v-1.13Z"/>
      <path d="m12.55,16.13v.2s-.09-.07-.13-.07c-.03,0-.05,0-.06.03-.02.02-.02.04-.02.07s0,.05.02.08c.01.02.04.05.07.08.04.04.07.07.09.09s.03.04.04.06c.03.05.04.11.04.17s-.01.13-.04.19c-.02.05-.06.09-.1.11-.03.02-.07.03-.11.03-.06,0-.11-.02-.15-.05v-.2s.09.06.13.06c.03,0,.06-.01.07-.03.02-.02.03-.05.03-.08s0-.05-.02-.07c-.01-.02-.04-.04-.09-.08-.04-.04-.08-.07-.1-.11-.04-.05-.06-.12-.06-.21s.02-.17.07-.23c.04-.05.09-.08.16-.08.05,0,.1.02.15.05h.01Z"/>
      <path d="m12.89,16.43c.08,0,.13.04.17.11.03.06.05.15.05.26s-.02.19-.05.25c-.04.07-.1.11-.17.11-.05,0-.09-.02-.13-.05-.04-.03-.06-.09-.08-.16-.01-.05-.02-.1-.02-.16,0-.1.02-.19.05-.25.04-.07.09-.11.17-.11h.01Zm0,.18s-.03.02-.04.05c-.01.03-.02.08-.02.14s0,.11.02.14c0,.03.02.05.04.05s.03-.02.04-.05c0-.03.01-.08.01-.14s0-.11-.01-.14c0-.03-.02-.05-.04-.05Z"/>
      <path d="m13.2,16.02h.16v1.13h-.16v-1.13Z"/>
      <path d="m13.47,16.44h.16v.51s.02.03.03.03.03,0,.03-.03v-.52h.16v.55s-.01.04-.02.06c-.02.03-.04.06-.07.08s-.07.03-.11.03c-.05,0-.1-.02-.14-.06-.04-.03-.06-.08-.06-.13v-.53h.02Z"/>
      <path d="m14,16.24h.16v.2h.07v.16h-.07v.55h-.16v-.55h-.06v-.16h.06v-.2Z"/>
      <path d="m14.37,16.1s.05.01.07.04c.02.02.03.05.03.09s-.01.07-.03.09c-.02.02-.04.03-.07.03s-.05-.01-.07-.04c-.02-.02-.03-.05-.03-.09s.01-.06.03-.09c.02-.02.05-.04.07-.04h0Zm-.09.34h.16v.71h-.16v-.71Z"/>
      <path d="m14.76,16.43c.08,0,.13.04.17.11.03.06.05.15.05.26s-.02.19-.05.25c-.04.07-.1.11-.17.11-.05,0-.09-.02-.13-.05-.04-.03-.06-.09-.08-.16-.01-.05-.02-.1-.02-.16,0-.1.02-.19.05-.25.04-.07.09-.11.17-.11h.01Zm0,.18s-.03.02-.04.05c-.01.03-.02.08-.02.14s0,.11.02.14c.01.03.02.05.04.05s.03-.02.04-.05c0-.03.01-.08.01-.14s0-.11-.01-.14c0-.03-.02-.05-.04-.05Z"/>
      <path d="m15.07,16.44h.16v.11s.03-.06.04-.07c.03-.03.06-.05.1-.05.02,0,.04,0,.05.02.02.01.03.03.04.05.01.03.02.09.02.18v.47h-.16v-.5s-.02-.02-.03-.02c-.02,0-.03.01-.04.04v.48h-.16v-.71h-.02Z"/>
    </g>
    <polygon points="13.62 15.67 14.27 15.67 13.94 14.18 13.62 15.67"/>
    <path d="m6.79,11.67v1.16h2.23v-1.16h-2.23Zm0,2.84v1.16h2.23v-1.16h-1.21v-.26h1.21v-1.16h-2.23v1.16s0,.26,0,.26Z"/>
  </g>
  <g>
    <polyline points="25.66 15.7 24.62 11.69 23.52 11.69 22.47 15.7 23.54 15.7 24.07 13.23 24.62 15.7 25.66 15.7"/>
    <polyline points="19.55 11.7 20.59 15.71 21.69 15.71 22.73 11.7 21.67 11.7 21.14 14.17 20.59 11.71 19.54 11.71"/>
    <g>
      <path d="m16.93,16.12h.17v.86h.18v.2h-.35v-1.06Z"/>
      <path d="m17.59,16.47h.16v.71h-.16v-.08c-.03.06-.06.09-.11.09-.02,0-.04,0-.06-.02-.02-.01-.03-.03-.05-.06-.04-.07-.05-.17-.05-.29s.02-.22.05-.29c.01-.02.03-.04.05-.06.02-.01.04-.02.06-.02.05,0,.08.03.11.1v-.09h0Zm-.04.16s-.03.02-.04.05c-.01.03-.02.08-.02.14s0,.11.02.14.02.05.04.05c.01,0,.03-.01.04-.04,0-.01,0-.03.01-.06v-.09c0-.06,0-.11-.01-.14,0-.03-.02-.05-.04-.05Z"/>
      <path d="m18.02,16.05v.51c.03-.07.06-.1.11-.1.02,0,.04,0,.06.02.02.01.04.03.05.06.03.07.05.16.05.29s-.02.22-.05.29c-.01.02-.03.04-.05.06-.02.01-.04.02-.06.02-.04,0-.08-.03-.11-.09v.08h-.16v-1.13h.16Zm.04.59s-.03.02-.04.05c-.01.03-.01.08-.01.14s0,.11.01.14c0,.03.02.05.04.05s.03-.02.04-.05c.01-.03.02-.08.02-.14,0-.13-.02-.19-.06-.19Z"/>
      <path d="m18.63,16.96h.14s-.02.1-.03.13c-.01.03-.03.06-.06.08-.03.02-.06.03-.1.03-.07,0-.12-.03-.16-.09-.04-.06-.06-.15-.06-.26,0-.13.02-.23.07-.3.04-.06.09-.09.15-.09s.11.03.15.09c.04.06.05.14.05.25v.08h-.26v.11s.03.06.05.06c.03,0,.05-.03.05-.09h.01Zm0-.2v-.02s0-.07-.02-.09c-.01-.02-.03-.03-.04-.03s-.03.01-.04.03-.02.05-.02.09v.02h.12Z"/>
      <path d="m18.87,16.05h.16v1.13h-.16v-1.13Z"/>
      <path d="m19.24,16.05h.17l-.17.43h-.12l.12-.43Z"/>
      <path d="m19.64,16.52l-.07.15s-.05-.05-.08-.05c-.01,0-.02,0-.03.01,0,0-.01.02-.01.04,0,.01,0,.03.01.03s.02.02.05.04c.04.03.08.06.09.09.02.03.03.07.03.12,0,.07-.02.13-.05.17-.04.05-.08.08-.14.08s-.12-.03-.18-.08l.07-.14s.06.04.08.04.03,0,.04-.02c0-.01.01-.02.01-.04,0-.01,0-.03-.01-.04,0,0-.02-.02-.04-.03-.05-.03-.08-.06-.1-.08-.03-.04-.04-.08-.04-.14,0-.07.02-.12.06-.16.03-.03.08-.05.13-.05s.11.02.16.06h.02Z"/>
      <path d="m19.97,16.12h.44v.19h-.14v.86h-.17v-.86h-.14v-.19h0Z"/>
      <path d="m20.67,16.46c.08,0,.13.04.17.11.03.06.05.15.05.26s-.02.19-.05.25c-.04.07-.1.11-.17.11-.05,0-.09-.02-.13-.05-.04-.03-.06-.09-.08-.16-.01-.05-.02-.1-.02-.16,0-.1.02-.19.05-.25.04-.07.09-.11.17-.11h.01Zm0,.18s-.03.02-.04.05c-.01.03-.02.08-.02.14s0,.11.02.14c.01.03.02.05.04.05s.03-.02.04-.05c0-.03.01-.08.01-.14s0-.11-.01-.14c0-.03-.02-.05-.04-.05Z"/>
      <path d="m20.99,16.28h.16v.2h.07v.16h-.07v.55h-.16v-.55h-.06v-.16h.06v-.2Z"/>
      <path d="m21.53,16.47h.16v.71h-.16v-.08c-.03.06-.06.09-.11.09-.02,0-.04,0-.06-.02-.02-.01-.03-.03-.05-.06-.04-.07-.05-.17-.05-.29s.02-.22.05-.29c.01-.02.03-.04.05-.06.02-.01.04-.02.06-.02.05,0,.08.03.11.1v-.09h0Zm-.04.16s-.03.02-.04.05c-.01.03-.02.08-.02.14s0,.11.02.14c.01.03.02.05.04.05.01,0,.03-.01.04-.04,0-.01,0-.03.01-.06v-.09c0-.06,0-.11-.01-.14,0-.03-.02-.05-.04-.05Z"/>
      <path d="m21.8,16.05h.16v1.13h-.16v-1.13Z"/>
      <path d="m22.69,16.16v.2s-.09-.07-.13-.07c-.03,0-.05,0-.06.03-.02.02-.02.04-.02.07s0,.05.02.08c.01.02.04.05.07.08l.09.09s.03.04.04.06c.03.05.04.11.04.17s-.01.13-.04.19c-.02.05-.06.09-.1.11-.03.02-.07.03-.11.03-.06,0-.11-.02-.15-.05v-.2s.09.06.13.06c.03,0,.06-.01.07-.03.02-.02.03-.05.03-.08s0-.05-.02-.07c-.01-.02-.04-.04-.09-.08-.04-.04-.08-.07-.1-.11-.04-.05-.06-.12-.06-.21s.02-.17.07-.23c.04-.05.09-.08.16-.08.05,0,.1.02.15.05h.01Z"/>
      <path d="m23.03,16.46c.08,0,.13.04.17.11.03.06.05.15.05.26s-.02.19-.05.25c-.04.07-.1.11-.17.11-.05,0-.09-.02-.13-.05-.04-.03-.06-.09-.08-.16-.01-.05-.02-.1-.02-.16,0-.1.02-.19.05-.25.04-.07.09-.11.17-.11h.01Zm0,.18s-.03.02-.04.05c-.01.03-.02.08-.02.14s0,.11.02.14c0,.03.02.05.04.05s.03-.02.04-.05c0-.03.01-.08.01-.14s0-.11-.01-.14c0-.03-.02-.05-.04-.05Z"/>
      <path d="m23.33,16.05h.16v1.13h-.16v-1.13Z"/>
      <path d="m23.6,16.47h.16v.51s.02.03.03.03.03,0,.03-.03v-.52h.16v.55s-.01.04-.02.06c-.02.03-.04.06-.07.08-.03.02-.07.03-.11.03-.05,0-.1-.02-.14-.06-.04-.03-.06-.08-.06-.13v-.53h.02Z"/>
      <path d="m24.13,16.28h.16v.2h.07v.16h-.07v.55h-.16v-.55h-.06v-.16h.06v-.2Z"/>
      <path d="m24.51,16.14s.05.01.07.04c.02.02.03.05.03.09s-.01.07-.03.09-.04.03-.07.03-.05-.01-.07-.04c-.02-.02-.03-.05-.03-.09s.01-.06.03-.09c.02-.02.05-.04.07-.04h0Zm-.09.34h.16v.71h-.16v-.71Z"/>
      <path d="m24.89,16.46c.08,0,.13.04.17.11.03.06.05.15.05.26s-.02.19-.05.25c-.04.07-.1.11-.17.11-.05,0-.09-.02-.13-.05-.04-.03-.06-.09-.08-.16-.01-.05-.02-.1-.02-.16,0-.1.02-.19.05-.25.04-.07.09-.11.17-.11h.01Zm0,.18s-.03.02-.04.05c-.01.03-.02.08-.02.14s0,.11.02.14c.01.03.02.05.04.05s.03-.02.04-.05c0-.03.01-.08.01-.14s0-.11-.01-.14c0-.03-.02-.05-.04-.05Z"/>
      <path d="m25.2,16.47h.16v.11s.03-.06.04-.07c.03-.03.06-.05.1-.05.02,0,.04,0,.05.02.02.01.03.03.04.05.01.03.02.09.02.18v.47h-.16v-.5s-.02-.02-.03-.02c-.02,0-.03.01-.04.04v.48h-.16v-.71h-.02Z"/>
    </g>
    <polygon points="23.76 15.7 24.4 15.7 24.07 14.22 23.76 15.7"/>
    <path d="m16.93,11.71v1.16h2.23v-1.16h-2.23Zm0,2.84v1.16h2.23v-1.16h-1.21v-.26h1.21v-1.16h-2.23v1.42Z"/>
  </g>
  <rect class="cls-2" x="1.87" y="1.33" width="17.02" height="6.03" rx="1.62" ry="1.62"/>
  <g>
    <path d="m4.68,6.21c-.09.11-.27.16-.52.16h-1.02v-.27c.13,0,.23-.02.28-.06s.07-.13.07-.27v-1c0-.1.06-.21.19-.33.13-.13.2-.23.2-.31,0-.07-.03-.15-.08-.23-.07-.1-.15-.15-.25-.17-.04,0-.09,0-.15.02-.06.02-.1.04-.12.05.1.09.15.21.15.36,0,.13-.05.25-.14.34-.09.09-.2.14-.33.14s-.24-.05-.33-.14c-.09-.09-.14-.21-.14-.34,0-.21.13-.39.38-.52.27-.14.52-.21.76-.2.14,0,.27.09.38.23.13.14.19.3.19.46,0,.1-.06.21-.19.34-.12.13-.18.25-.18.35v1.26h.13c.2,0,.32-.02.38-.07.08-.06.12-.19.12-.39v-2.14h.35v2.21c0,.24-.05.41-.14.52Zm-1.51-2.04c0-.14-.07-.21-.2-.21s-.2.07-.2.21.07.21.2.21.2-.07.2-.21Z"/>
    <path d="m7.19,6.27c-.09.1-.21.14-.37.14-.13,0-.24-.05-.34-.15-.09-.1-.14-.22-.14-.35s.04-.24.13-.34c.09-.09.2-.14.33-.14.08,0,.14,0,.17.03v-1.16c0-.17-.06-.32-.19-.43-.12-.11-.28-.17-.46-.17-.36,0-.61.17-.73.5h-.36c.16-.52.53-.78,1.11-.78.14,0,.27.02.39.06.12.04.22.09.31.17s.16.16.21.26c.05.1.07.21.07.34v1.64c0,.16-.04.29-.14.38Zm-.18-.35c0-.14-.07-.21-.2-.21s-.2.07-.2.21.07.21.2.21.2-.07.2-.21Z"/>
    <path d="m9.27,6.37v-2.07c0-.18-.05-.32-.15-.43-.1-.11-.23-.17-.41-.17-.31,0-.51.17-.61.5h-.36c.06-.23.17-.42.34-.56s.39-.22.64-.22c.27,0,.48.07.65.22.17.15.25.35.25.59v2.13h-.35Z"/>
    <path d="m12.19,6.21c-.09.11-.27.16-.52.16h-1.29v-1.53c0-.16.05-.29.14-.38.09-.1.21-.14.37-.14.13,0,.24.05.34.15.09.1.14.22.14.35s-.04.24-.13.34c-.09.09-.2.14-.33.14-.08,0-.14,0-.17-.03v.82h.74c.2,0,.32-.02.38-.07.08-.06.12-.19.12-.39v-1.32c0-.17-.07-.32-.2-.43s-.29-.17-.48-.17c-.39,0-.64.17-.76.5h-.36c.16-.52.55-.78,1.15-.78.14,0,.27.02.4.06.12.04.23.09.32.17.09.07.16.16.21.26.05.1.08.21.08.34v1.45c0,.24-.05.41-.14.52Zm-1.09-1.4c0-.14-.07-.21-.2-.21s-.2.07-.2.21.07.21.2.21.2-.07.2-.21Z"/>
    <path d="m14.89,6.21c-.09.11-.27.16-.52.16h-1.29v-1.53c0-.16.05-.29.14-.38.09-.1.21-.14.37-.14.13,0,.24.05.34.15.09.1.14.22.14.35s-.04.24-.13.34c-.09.09-.2.14-.33.14-.08,0-.14,0-.17-.03v.82h.74c.2,0,.32-.02.38-.07.08-.06.12-.19.12-.39v-1.32c0-.17-.07-.32-.2-.43s-.29-.17-.48-.17c-.39,0-.64.17-.76.5h-.36c.16-.52.55-.78,1.15-.78.14,0,.27.02.4.06.12.04.23.09.32.17.09.07.16.16.21.26.05.1.08.21.08.34v1.45c0,.24-.05.41-.14.52Zm-1.09-1.4c0-.14-.07-.21-.2-.21s-.2.07-.2.21.07.21.2.21.2-.07.2-.21Z"/>
    <path d="m17.34,6.37v-2.07c0-.19-.07-.34-.21-.45-.12-.1-.26-.15-.43-.15-.28,0-.5.1-.67.29.09.04.17.08.25.13.08.05.14.11.2.18-.24.09-.36.26-.36.51v1.56h-.35v-1.57c0-.27.1-.44.29-.5-.05-.04-.12-.08-.2-.12-.08-.04-.17-.09-.28-.13.27-.42.64-.63,1.13-.63.28,0,.51.07.69.22.2.16.29.38.29.67v2.06h-.35Z"/>
  </g>
</svg>