<?xml version="1.0" encoding="UTF-8"?>
<svg id="Layer_1" data-name="Layer 1" xmlns="http://www.w3.org/2000/svg" xmlns:xlink="http://www.w3.org/1999/xlink" viewBox="0 0 26.46 18.57">
  <defs>
    <style>
      .cls-1 {
        fill: url(#linear-gradient);
      }

      .cls-2 {
        stroke: #000;
        stroke-miterlimit: 10;
        stroke-width: .2px;
      }

      .cls-2, .cls-3 {
        fill: #fff;
      }

      .cls-4 {
        fill: none;
      }

      .cls-4, .cls-3 {
        stroke: #231f20;
        stroke-width: .06px;
      }

      .cls-5 {
        fill: url(#linear-gradient-3);
      }

      .cls-6 {
        fill: url(#linear-gradient-2);
      }
    </style>
    <linearGradient id="linear-gradient" x1=".03" y1="166.25" x2="20.42" y2="166.25" gradientTransform="translate(0 178.2) scale(1 -1)" gradientUnits="userSpaceOnUse">
      <stop offset="0" stop-color="#e6e6e6"/>
      <stop offset=".28" stop-color="#fff"/>
      <stop offset="1" stop-color="#a3a3a3"/>
    </linearGradient>
    <linearGradient id="linear-gradient-2" x1="7.79" y1="173.11" x2="12.66" y2="173.11" gradientTransform="translate(0 178.2) scale(1 -1)" gradientUnits="userSpaceOnUse">
      <stop offset="0" stop-color="#e6e6e6"/>
      <stop offset=".28" stop-color="#fff"/>
      <stop offset="1" stop-color="#000"/>
    </linearGradient>
    <linearGradient id="linear-gradient-3" x1=".03" y1="166.13" x2="26.46" y2="166.13" xlink:href="#linear-gradient"/>
  </defs>
  <g>
    <g>
      <g>
        <path class="cls-1" d="m20.42,5.34H.03v8.18H.03c.02,2.78,4.58,5.04,10.19,5.04s10.17-2.25,10.19-5.04h0V5.34h.01Z"/>
        <path class="cls-3" d="m20.42,5.09c0,2.79-4.56,5.06-10.2,5.06S.03,7.88.03,5.09,4.59.03,10.22.03s10.2,2.26,10.2,5.06Z"/>
        <path class="cls-6" d="m12.66,5.09c0,.67-1.09,1.21-2.44,1.21s-2.44-.54-2.44-1.21,1.09-1.21,2.44-1.21,2.44.54,2.44,1.21Z"/>
        <path class="cls-4" d="m13.26,5.09c0,.83-1.36,1.51-3.04,1.51s-3.04-.68-3.04-1.51,1.36-1.51,3.04-1.51,3.04.68,3.04,1.51Z"/>
        <path class="cls-4" d="m13.66,5.09c0,.94-1.54,1.71-3.43,1.71s-3.43-.76-3.43-1.71,1.54-1.7,3.43-1.7,3.43.76,3.43,1.7Z"/>
        <path class="cls-4" d="m14.08,5.09c0,1.06-1.73,1.91-3.85,1.91s-3.85-.86-3.85-1.91,1.73-1.91,3.85-1.91,3.85.86,3.85,1.91Z"/>
        <path class="cls-4" d="m15.15,5.09c0,1.35-2.21,2.45-4.93,2.45s-4.93-1.1-4.93-2.45,2.21-2.45,4.93-2.45,4.93,1.1,4.93,2.45Z"/>
        <path class="cls-4" d="m16.23,5.09c0,1.64-2.69,2.98-6,2.98s-6-1.33-6-2.98,2.69-2.98,6-2.98,6,1.33,6,2.98Z"/>
        <path class="cls-4" d="m17.38,5.09c0,1.96-3.2,3.55-7.16,3.55s-7.16-1.59-7.16-3.55,3.2-3.55,7.16-3.55,7.16,1.59,7.16,3.55Z"/>
        <path class="cls-4" d="m18.61,5.09c0,2.3-3.76,4.16-8.39,4.16S1.83,7.39,1.83,5.09,5.59.93,10.22.93s8.39,1.86,8.39,4.16Z"/>
        <path class="cls-4" d="m19.45,5.09c0,2.53-4.13,4.58-9.23,4.58S1,7.62,1,5.09,5.13.51,10.22.51s9.23,2.05,9.23,4.58Z"/>
        <line class="cls-4" x1="20.43" y1="5.16" x2="20.43" y2="10.21"/>
        <path class="cls-5" d="m26.46,10.23v8.34H9.81S.82,18.43.03,14.54V5.56s.86,4.26,10.08,4.67h16.35"/>
      </g>
      <g>
        <polyline points="18.39 17.69 20.79 16.93 20.79 16.12 18.39 15.35 18.39 16.13 19.87 16.52 18.39 16.93 18.39 17.7"/>
        <polyline points="20.78 13.19 18.38 13.96 18.38 14.77 20.78 15.54 20.78 14.75 19.3 14.36 20.78 13.96 20.78 13.19"/>
        <g>
          <path d="m18.14,11.26v.13h-.51v.13h-.12v-.26h.63Z"/>
          <path d="m17.93,11.75v.12h-.42v-.12h.05s-.06-.05-.06-.08c0-.02,0-.03.01-.04,0-.01.02-.03.04-.03.04-.03.1-.04.17-.04s.13.01.17.04c.01,0,.03.02.03.03s.01.03.01.05c0,.03-.02.06-.06.08h.06Zm-.1-.03s-.01-.02-.03-.03c-.02,0-.05-.01-.08-.01s-.06,0-.08.01-.03.02-.03.03,0,.02.02.03h.09s.06,0,.08-.01c.02,0,.03-.02.03-.03h0Z"/>
          <path d="m18.18,12.07h-.31s.06.05.06.08c0,.02,0,.03-.01.05,0,.01-.02.03-.03.03-.04.02-.1.04-.17.04s-.13-.01-.17-.04c-.01,0-.03-.02-.04-.03,0-.01-.01-.03-.01-.04,0-.03.02-.06.06-.08h-.05v-.12h.68v.12h0Zm-.35.03s-.01-.02-.03-.03c-.02,0-.05-.01-.08-.01s-.06,0-.08.01c-.02,0-.03.02-.03.03s.01.02.03.03c.02,0,.05.01.08.01.08,0,.11-.01.11-.04Z"/>
          <path d="m17.64,12.51v.1s-.06-.01-.08-.02-.04-.03-.05-.05c-.01-.02-.02-.04-.02-.07,0-.05.02-.09.06-.12.04-.03.09-.04.15-.04.08,0,.14.02.18.05s.05.07.05.11-.02.08-.05.11c-.04.03-.09.04-.15.04h-.05v-.19h-.07s-.03.02-.03.04.02.04.05.04h.01Zm.12,0h.01s.04,0,.06-.01c.01,0,.02-.02.02-.03s0-.02-.02-.03c-.01,0-.03-.01-.06-.01h-.01v.09h0Z"/>
          <path d="m18.18,12.69v.12h-.68v-.12h.68Z"/>
          <path d="m18.18,12.96v.13l-.26-.13v-.09l.26.09Z"/>
          <path d="m17.9,13.26l-.09-.05s.03-.04.03-.06v-.02h-.04s-.01.02-.02.04c-.02.03-.03.06-.05.07s-.04.02-.07.02c-.04,0-.08-.01-.1-.03-.03-.03-.05-.06-.05-.1,0-.05.02-.09.05-.13l.08.05s-.03.04-.03.06v.03s.01.01.03.01h.02s.01-.02.02-.03c.02-.04.03-.06.05-.07.02-.02.05-.03.08-.03.04,0,.07.01.1.04.02.03.03.06.03.1s-.01.08-.04.11h0Z"/>
          <path d="m18.14,13.5v.33h-.12v-.1h-.52v-.13h.52v-.1s.12,0,.12,0Z"/>
          <path d="m17.94,14.02c0,.06-.02.1-.07.13-.04.02-.09.04-.16.04-.06,0-.11-.01-.15-.04-.04-.03-.07-.07-.07-.13,0-.04,0-.07.03-.09.02-.03.05-.05.1-.06.03,0,.06-.01.1-.01.06,0,.11.01.15.04.04.03.07.07.07.13h0Zm-.11,0s0-.02-.03-.03c-.02,0-.05-.01-.08-.01s-.06,0-.08.01c-.02,0-.03.02-.03.03s.01.02.03.03c.02,0,.05.01.08.01s.06,0,.08-.01c.02,0,.03-.02.03-.03Z"/>
          <path d="m18.05,14.25v.12h-.12v.05h-.1v-.05h-.33v-.12h.33v-.04h.1v.04h.12Z"/>
          <path d="m17.93,14.65v.12h-.42v-.12h.05s-.06-.05-.06-.08c0-.02,0-.03.01-.04,0-.01.02-.03.04-.03.04-.03.1-.04.17-.04s.13.01.17.04c.01,0,.03.02.03.03s.01.03.01.05c0,.03-.02.06-.06.08h.06Zm-.1-.03s-.01-.02-.03-.03c-.02,0-.05-.01-.08-.01s-.06,0-.08.01c-.02,0-.03.02-.03.03s0,.02.02.03h.09s.06,0,.08-.01c.02,0,.03-.02.03-.03h0Z"/>
          <path d="m18.18,14.85v.12h-.68v-.12h.68Z"/>
          <path d="m18.12,15.5h-.12s.04-.06.04-.09c0-.02,0-.03-.02-.05-.01-.01-.03-.02-.04-.02-.02,0-.03,0-.05.01-.01,0-.03.03-.05.05-.02.03-.04.05-.05.07-.01.01-.02.02-.03.03-.03.02-.06.03-.1.03s-.08,0-.11-.03c-.03-.02-.05-.04-.07-.08-.01-.02-.02-.05-.02-.08,0-.04.01-.08.03-.11h.12s-.03.07-.03.09,0,.04.02.06c.01.01.03.02.05.02s.03,0,.04-.01c.01,0,.03-.03.05-.06.02-.03.04-.06.06-.08.03-.03.07-.04.12-.04.06,0,.1.02.14.05.03.03.05.07.05.12,0,.04-.01.08-.03.11h0Z"/>
          <path d="m17.94,15.75c0,.06-.02.1-.07.13-.04.02-.09.04-.16.04-.06,0-.11-.01-.15-.04-.04-.03-.07-.07-.07-.13,0-.04,0-.07.03-.09.02-.03.05-.05.1-.06.03,0,.06-.01.1-.01.06,0,.11.01.15.04.04.03.07.07.07.13h0Zm-.11,0s0-.02-.03-.03c-.02,0-.05-.01-.08-.01s-.06,0-.08.01c-.02,0-.03.02-.03.03s.01.02.03.03c.02,0,.05.01.08.01s.06,0,.08-.01c.02,0,.03-.02.03-.03Z"/>
          <path d="m18.18,15.98v.12h-.68v-.12s.68,0,.68,0Z"/>
          <path d="m17.93,16.18v.12h-.3s-.02.01-.02.03,0,.02.02.02h.3v.12h-.33s-.02,0-.04-.02c-.02-.01-.03-.03-.05-.05-.01-.02-.02-.05-.02-.08,0-.04.01-.07.03-.1s.05-.04.08-.05h.33Z"/>
          <path d="m18.05,16.57v.12h-.12v.05h-.1v-.05h-.33v-.12h.33v-.04h.1v.04h.12Z"/>
          <path d="m18.13,16.84s0,.04-.02.05c-.01.01-.03.02-.05.02s-.04,0-.06-.03c-.01-.01-.02-.03-.02-.05s0-.04.02-.05c.01-.01.03-.02.05-.02s.04,0,.05.02c.01.02.02.03.02.06h.01Zm-.2-.06v.12h-.42v-.12h.42Z"/>
          <path d="m17.94,17.13c0,.06-.02.1-.07.13-.04.02-.09.04-.16.04-.06,0-.11-.01-.15-.04-.04-.03-.07-.07-.07-.13,0-.04,0-.07.03-.09.02-.03.05-.05.1-.06.03,0,.06-.01.1-.01.06,0,.11.01.15.04.04.03.07.07.07.13h0Zm-.11,0s0-.02-.03-.03c-.02,0-.05-.01-.08-.01s-.06,0-.08.01c-.02,0-.03.02-.03.03s.01.02.03.03c.02,0,.05.01.08.01s.06,0,.08-.01c.02,0,.03-.02.03-.03Z"/>
          <path d="m17.93,17.36v.12h-.07s.03.02.04.03c.02.02.03.05.03.07,0,.01,0,.03-.01.04,0,.01-.02.02-.03.03-.02,0-.06.01-.11.01h-.28v-.12h.3s.01-.01.01-.02,0-.02-.02-.03h-.29v-.12h.43Z"/>
        </g>
        <polygon points="18.39 16.29 18.39 16.77 19.28 16.52 18.39 16.29"/>
        <path d="m20.78,11.26h-.69v1.64h.69v-1.64Zm-1.7,0h-.69v1.64h.69v-.89h.16v.89h.69v-1.64h-.85Z"/>
      </g>
      <g>
        <polyline points="13.63 17.69 16.03 16.93 16.03 16.12 13.63 15.35 13.63 16.13 15.11 16.52 13.63 16.93 13.63 17.7"/>
        <polyline points="16.02 13.19 13.62 13.96 13.62 14.77 16.02 15.54 16.02 14.75 14.54 14.36 16.02 13.96 16.02 13.19"/>
        <g>
          <path d="m13.38,11.26v.13h-.51v.13h-.12v-.26h.63Z"/>
          <path d="m13.17,11.75v.12h-.42v-.12h.05s-.06-.05-.06-.08c0-.02,0-.03.01-.04,0-.01.02-.03.04-.03.04-.03.1-.04.17-.04s.13.01.17.04c.01,0,.03.02.03.03s.01.03.01.05c0,.03-.02.06-.06.08h.06Zm-.1-.03s-.01-.02-.03-.03c-.02,0-.05-.01-.08-.01s-.06,0-.08.01-.03.02-.03.03,0,.02.02.03h.09s.06,0,.08-.01c.02,0,.03-.02.03-.03h0Z"/>
          <path d="m13.42,12.07h-.31s.06.05.06.08c0,.02,0,.03-.01.05,0,.01-.02.03-.03.03-.04.02-.1.04-.17.04s-.13-.01-.17-.04c-.01,0-.03-.02-.04-.03,0-.01-.01-.03-.01-.04,0-.03.02-.06.06-.08h-.05v-.12h.68v.12h-.01Zm-.35.03s-.01-.02-.03-.03c-.02,0-.05-.01-.08-.01s-.06,0-.08.01c-.02,0-.03.02-.03.03s.01.02.03.03c.02,0,.05.01.08.01.08,0,.11-.01.11-.04Z"/>
          <path d="m12.88,12.51v.1s-.06-.01-.08-.02c-.02-.01-.04-.03-.05-.05s-.02-.04-.02-.07c0-.05.02-.09.06-.12s.09-.04.15-.04c.08,0,.14.02.18.05s.05.07.05.11c0,.05-.02.08-.05.11-.04.03-.09.04-.15.04h-.05v-.19h-.07s-.03.02-.03.04.02.04.05.04h0Zm.12,0h.01s.04,0,.06-.01c.01,0,.02-.02.02-.03s0-.02-.02-.03c-.01,0-.03-.01-.06-.01h-.01v.09h0Z"/>
          <path d="m13.42,12.69v.12h-.68v-.12h.68Z"/>
          <path d="m13.42,12.96v.13l-.26-.13v-.09l.26.09Z"/>
          <path d="m13.14,13.26l-.09-.05s.03-.04.03-.06v-.02h-.04s-.01.02-.02.04c-.02.03-.03.06-.05.07-.02.01-.04.02-.07.02-.04,0-.08-.01-.1-.03-.03-.03-.05-.06-.05-.1,0-.05.02-.09.05-.13l.08.05s-.03.04-.03.06v.03s.01.01.03.01h.02s.01-.02.02-.03c.02-.04.03-.06.05-.07.02-.02.05-.03.08-.03.04,0,.07.01.1.04.02.03.03.06.03.1s-.01.08-.04.11h0Z"/>
          <path d="m13.38,13.5v.33h-.12v-.1h-.52v-.13h.52v-.1s.12,0,.12,0Z"/>
          <path d="m13.18,14.02c0,.06-.02.1-.07.13-.04.02-.09.04-.16.04-.06,0-.11-.01-.15-.04s-.07-.07-.07-.13c0-.04,0-.07.03-.09.02-.03.05-.05.1-.06.03,0,.06-.01.1-.01.06,0,.11.01.15.04s.07.07.07.13h0Zm-.11,0s0-.02-.03-.03c-.02,0-.05-.01-.08-.01s-.06,0-.08.01c-.02,0-.03.02-.03.03s.01.02.03.03c.02,0,.05.01.08.01s.06,0,.08-.01c.02,0,.03-.02.03-.03Z"/>
          <path d="m13.29,14.25v.12h-.12v.05h-.1v-.05h-.33v-.12h.33v-.04h.1v.04h.12Z"/>
          <path d="m13.17,14.65v.12h-.42v-.12h.05s-.06-.05-.06-.08c0-.02,0-.03.01-.04,0-.01.02-.03.04-.03.04-.03.1-.04.17-.04s.13.01.17.04c.01,0,.03.02.03.03s.01.03.01.05c0,.03-.02.06-.06.08h.06Zm-.1-.03s-.01-.02-.03-.03c-.02,0-.05-.01-.08-.01s-.06,0-.08.01c-.02,0-.03.02-.03.03s0,.02.02.03h.09s.06,0,.08-.01c.02,0,.03-.02.03-.03h0Z"/>
          <path d="m13.42,14.85v.12h-.68v-.12h.68Z"/>
          <path d="m13.36,15.5h-.12s.04-.06.04-.09c0-.02,0-.03-.02-.05-.01-.01-.03-.02-.04-.02-.02,0-.03,0-.05.01-.01,0-.03.03-.05.05-.02.03-.04.05-.05.07l-.03.03s-.06.03-.1.03-.08,0-.11-.03c-.03-.02-.05-.04-.07-.08-.01-.02-.02-.05-.02-.08,0-.04.01-.08.03-.11h.12s-.03.07-.03.09,0,.04.02.06c.01.01.03.02.05.02s.03,0,.04-.01c.01,0,.03-.03.05-.06.02-.03.04-.06.06-.08.03-.03.07-.04.12-.04.06,0,.1.02.14.05.03.03.05.07.05.12,0,.04-.01.08-.03.11h0Z"/>
          <path d="m13.18,15.75c0,.06-.02.1-.07.13-.04.02-.09.04-.16.04-.06,0-.11-.01-.15-.04s-.07-.07-.07-.13c0-.04,0-.07.03-.09.02-.03.05-.05.1-.06.03,0,.06-.01.1-.01.06,0,.11.01.15.04s.07.07.07.13h0Zm-.11,0s0-.02-.03-.03c-.02,0-.05-.01-.08-.01s-.06,0-.08.01c-.02,0-.03.02-.03.03s.01.02.03.03c.02,0,.05.01.08.01s.06,0,.08-.01c.02,0,.03-.02.03-.03Z"/>
          <path d="m13.42,15.98v.12h-.68v-.12s.68,0,.68,0Z"/>
          <path d="m13.17,16.18v.12h-.3s-.02.01-.02.03,0,.02.02.02h.3v.12h-.33s-.02,0-.04-.02c-.02-.01-.03-.03-.05-.05-.01-.02-.02-.05-.02-.08,0-.04.01-.07.03-.1.02-.03.05-.04.08-.05h.33Z"/>
          <path d="m13.29,16.57v.12h-.12v.05h-.1v-.05h-.33v-.12h.33v-.04h.1v.04h.12Z"/>
          <path d="m13.37,16.84s0,.04-.02.05c-.01.01-.03.02-.05.02s-.04,0-.06-.03c-.01-.01-.02-.03-.02-.05s0-.04.02-.05c.01-.01.03-.02.05-.02s.04,0,.05.02.02.03.02.06h.01Zm-.2-.06v.12h-.42v-.12h.42Z"/>
          <path d="m13.18,17.13c0,.06-.02.1-.07.13-.04.02-.09.04-.16.04-.06,0-.11-.01-.15-.04s-.07-.07-.07-.13c0-.04,0-.07.03-.09.02-.03.05-.05.1-.06.03,0,.06-.01.1-.01.06,0,.11.01.15.04s.07.07.07.13h0Zm-.11,0s0-.02-.03-.03c-.02,0-.05-.01-.08-.01s-.06,0-.08.01c-.02,0-.03.02-.03.03s.01.02.03.03c.02,0,.05.01.08.01s.06,0,.08-.01c.02,0,.03-.02.03-.03Z"/>
          <path d="m13.17,17.36v.12h-.07s.03.02.04.03c.02.02.03.05.03.07,0,.01,0,.03-.01.04,0,.01-.02.02-.03.03-.02,0-.06.01-.11.01h-.28v-.12h.3s.01-.01.01-.02,0-.02-.02-.03h-.29v-.12h.43Z"/>
        </g>
        <polygon points="13.63 16.29 13.63 16.77 14.52 16.52 13.63 16.29"/>
        <path d="m16.02,11.26h-.69v1.64h.69v-1.64Zm-1.7,0h-.69v1.64h.69v-.89h.16v.89h.69v-1.64h-.85Z"/>
      </g>
      <g>
        <polyline points="8.87 17.69 11.27 16.93 11.27 16.12 8.87 15.35 8.87 16.13 10.35 16.52 8.87 16.93 8.87 17.7"/>
        <polyline points="11.26 13.19 8.86 13.96 8.86 14.77 11.26 15.54 11.26 14.75 9.78 14.36 11.26 13.96 11.26 13.19"/>
        <g>
          <path d="m8.62,11.26v.13h-.51v.13h-.12v-.26h.63Z"/>
          <path d="m8.41,11.75v.12h-.42v-.12h.05s-.06-.05-.06-.08c0-.02,0-.03.01-.04,0-.01.02-.03.04-.03.04-.03.1-.04.17-.04s.13.01.17.04c.01,0,.03.02.03.03s.01.03.01.05c0,.03-.02.06-.06.08h.06Zm-.1-.03s-.01-.02-.03-.03c-.02,0-.05-.01-.08-.01s-.06,0-.08.01-.03.02-.03.03,0,.02.02.03h.09s.06,0,.08-.01c.02,0,.03-.02.03-.03h0Z"/>
          <path d="m8.66,12.07h-.31s.06.05.06.08c0,.02,0,.03-.01.05,0,.01-.02.03-.03.03-.04.02-.1.04-.17.04s-.13-.01-.17-.04c-.01,0-.03-.02-.04-.03,0-.01-.01-.03-.01-.04,0-.03.02-.06.06-.08h-.05v-.12h.68v.12h-.01Zm-.35.03s-.01-.02-.03-.03c-.02,0-.05-.01-.08-.01s-.06,0-.08.01c-.02,0-.03.02-.03.03s.01.02.03.03c.02,0,.05.01.08.01.08,0,.11-.01.11-.04Z"/>
          <path d="m8.12,12.51v.1s-.06-.01-.08-.02c-.02-.01-.04-.03-.05-.05s-.02-.04-.02-.07c0-.05.02-.09.06-.12s.09-.04.15-.04c.08,0,.14.02.18.05s.05.07.05.11c0,.05-.02.08-.05.11-.04.03-.09.04-.15.04h-.05v-.19h-.07s-.03.02-.03.04.02.04.05.04h0Zm.12,0h.01s.04,0,.06-.01c.01,0,.02-.02.02-.03s0-.02-.02-.03c-.01,0-.03-.01-.06-.01h-.01v.09h0Z"/>
          <path d="m8.66,12.69v.12h-.68v-.12h.68Z"/>
          <path d="m8.66,12.96v.13l-.26-.13v-.09l.26.09Z"/>
          <path d="m8.38,13.26l-.09-.05s.03-.04.03-.06v-.02h-.04s-.01.02-.02.04c-.02.03-.03.06-.05.07-.02.01-.04.02-.07.02-.04,0-.08-.01-.1-.03-.03-.03-.05-.06-.05-.1,0-.05.02-.09.05-.13l.08.05s-.03.04-.03.06v.03s.01.01.03.01h.02s.01-.02.02-.03c.02-.04.03-.06.05-.07.02-.02.05-.03.08-.03.04,0,.07.01.1.04.02.03.03.06.03.1s-.01.08-.04.11h0Z"/>
          <path d="m8.62,13.5v.33h-.12v-.1h-.52v-.13h.52v-.1s.12,0,.12,0Z"/>
          <path d="m8.42,14.02c0,.06-.02.1-.07.13-.04.02-.09.04-.16.04-.06,0-.11-.01-.15-.04s-.07-.07-.07-.13c0-.04,0-.07.03-.09.02-.03.05-.05.1-.06.03,0,.06-.01.1-.01.06,0,.11.01.15.04s.07.07.07.13h0Zm-.11,0s0-.02-.03-.03c-.02,0-.05-.01-.08-.01s-.06,0-.08.01c-.02,0-.03.02-.03.03s.01.02.03.03c.02,0,.05.01.08.01s.06,0,.08-.01c.02,0,.03-.02.03-.03Z"/>
          <path d="m8.53,14.25v.12h-.12v.05h-.1v-.05h-.33v-.12h.33v-.04h.1v.04h.12Z"/>
          <path d="m8.41,14.65v.12h-.42v-.12h.05s-.06-.05-.06-.08c0-.02,0-.03.01-.04,0-.01.02-.03.04-.03.04-.03.1-.04.17-.04s.13.01.17.04c.01,0,.03.02.03.03s.01.03.01.05c0,.03-.02.06-.06.08h.06Zm-.1-.03s-.01-.02-.03-.03c-.02,0-.05-.01-.08-.01s-.06,0-.08.01c-.02,0-.03.02-.03.03s0,.02.02.03h.09s.06,0,.08-.01c.02,0,.03-.02.03-.03h0Z"/>
          <path d="m8.66,14.85v.12h-.68v-.12h.68Z"/>
          <path d="m8.6,15.5h-.12s.04-.06.04-.09c0-.02,0-.03-.02-.05-.01-.01-.03-.02-.04-.02-.02,0-.03,0-.05.01-.01,0-.03.03-.05.05-.02.03-.04.05-.05.07l-.03.03s-.06.03-.1.03-.08,0-.11-.03c-.03-.02-.05-.04-.07-.08-.01-.02-.02-.05-.02-.08,0-.04.01-.08.03-.11h.12s-.03.07-.03.09,0,.04.02.06c.01.01.03.02.05.02s.03,0,.04-.01c.01,0,.03-.03.05-.06.02-.03.04-.06.06-.08.03-.03.07-.04.12-.04.06,0,.1.02.14.05.03.03.05.07.05.12,0,.04-.01.08-.03.11h0Z"/>
          <path d="m8.42,15.75c0,.06-.02.1-.07.13-.04.02-.09.04-.16.04-.06,0-.11-.01-.15-.04s-.07-.07-.07-.13c0-.04,0-.07.03-.09.02-.03.05-.05.1-.06.03,0,.06-.01.1-.01.06,0,.11.01.15.04s.07.07.07.13h0Zm-.11,0s0-.02-.03-.03c-.02,0-.05-.01-.08-.01s-.06,0-.08.01c-.02,0-.03.02-.03.03s.01.02.03.03c.02,0,.05.01.08.01s.06,0,.08-.01c.02,0,.03-.02.03-.03Z"/>
          <path d="m8.66,15.98v.12h-.68v-.12s.68,0,.68,0Z"/>
          <path d="m8.41,16.18v.12h-.3s-.02.01-.02.03,0,.02.02.02h.3v.12h-.33s-.02,0-.04-.02c-.02-.01-.03-.03-.05-.05-.01-.02-.02-.05-.02-.08,0-.04.01-.07.03-.1.02-.03.05-.04.08-.05h.33Z"/>
          <path d="m8.53,16.57v.12h-.12v.05h-.1v-.05h-.33v-.12h.33v-.04h.1v.04h.12Z"/>
          <path d="m8.61,16.84s0,.04-.02.05c-.01.01-.03.02-.05.02s-.04,0-.06-.03c-.01-.01-.02-.03-.02-.05s0-.04.02-.05c.01-.01.03-.02.05-.02s.04,0,.05.02.02.03.02.06h.01Zm-.2-.06v.12h-.42v-.12h.42Z"/>
          <path d="m8.42,17.13c0,.06-.02.1-.07.13-.04.02-.09.04-.16.04-.06,0-.11-.01-.15-.04s-.07-.07-.07-.13c0-.04,0-.07.03-.09.02-.03.05-.05.1-.06.03,0,.06-.01.1-.01.06,0,.11.01.15.04s.07.07.07.13h0Zm-.11,0s0-.02-.03-.03c-.02,0-.05-.01-.08-.01s-.06,0-.08.01c-.02,0-.03.02-.03.03s.01.02.03.03c.02,0,.05.01.08.01s.06,0,.08-.01c.02,0,.03-.02.03-.03Z"/>
          <path d="m8.41,17.36v.12h-.07s.03.02.04.03c.02.02.03.05.03.07,0,.01,0,.03-.01.04,0,.01-.02.02-.03.03-.02,0-.06.01-.11.01h-.28v-.12h.3s.01-.01.01-.02,0-.02-.02-.03h-.29v-.12h.43Z"/>
        </g>
        <polygon points="8.87 16.29 8.87 16.77 9.76 16.52 8.87 16.29"/>
        <path d="m11.26,11.26h-.69v1.64h.69v-1.64Zm-1.7,0h-.69v1.64h.69v-.89h.16v.89h.69v-1.64h-.85Z"/>
      </g>
    </g>
    <g>
      <polyline points="23.15 17.69 25.55 16.93 25.55 16.12 23.15 15.35 23.15 16.13 24.63 16.52 23.15 16.93 23.15 17.7"/>
      <polyline points="25.54 13.19 23.14 13.96 23.14 14.77 25.54 15.54 25.54 14.75 24.07 14.36 25.54 13.96 25.54 13.19"/>
      <g>
        <path d="m22.9,11.26v.13h-.51v.13h-.12v-.26h.63Z"/>
        <path d="m22.69,11.75v.12h-.42v-.12h.05s-.06-.05-.06-.08c0-.02,0-.03.01-.04,0-.01.02-.03.04-.03.04-.03.1-.04.17-.04s.13.01.17.04c.01,0,.03.02.03.03s.01.03.01.05c0,.03-.02.06-.06.08h.06Zm-.1-.03s-.01-.02-.03-.03c-.02,0-.05-.01-.08-.01s-.06,0-.08.01-.03.02-.03.03,0,.02.02.03h.09s.06,0,.08-.01c.02,0,.03-.02.03-.03h0Z"/>
        <path d="m22.94,12.07h-.31s.06.05.06.08c0,.02,0,.03-.01.05,0,.01-.02.03-.03.03-.04.02-.1.04-.17.04s-.13-.01-.17-.04c-.01,0-.03-.02-.04-.03,0-.01-.01-.03-.01-.04,0-.03.02-.06.06-.08h-.05v-.12h.68v.12h0Zm-.35.03s-.01-.02-.03-.03c-.02,0-.05-.01-.08-.01s-.06,0-.08.01c-.02,0-.03.02-.03.03s.01.02.03.03c.02,0,.05.01.08.01.08,0,.11-.01.11-.04Z"/>
        <path d="m22.4,12.51v.1s-.06-.01-.08-.02-.04-.03-.05-.05c-.01-.02-.02-.04-.02-.07,0-.05.02-.09.06-.12.04-.03.09-.04.15-.04.08,0,.14.02.18.05s.05.07.05.11-.02.08-.05.11c-.04.03-.09.04-.15.04h-.05v-.19h-.07s-.03.02-.03.04.02.04.05.04h.01Zm.12,0h.01s.04,0,.06-.01c.01,0,.02-.02.02-.03s0-.02-.02-.03c-.01,0-.03-.01-.06-.01h-.01v.09h0Z"/>
        <path d="m22.94,12.69v.12h-.68v-.12h.68Z"/>
        <path d="m22.94,12.96v.13l-.26-.13v-.09l.26.09Z"/>
        <path d="m22.66,13.26l-.09-.05s.03-.04.03-.06v-.02h-.04s-.01.02-.02.04c-.02.03-.03.06-.05.07s-.04.02-.07.02c-.04,0-.08-.01-.1-.03-.03-.03-.05-.06-.05-.1,0-.05.02-.09.05-.13l.08.05s-.03.04-.03.06v.03s.01.01.03.01h.02s.01-.02.02-.03c.02-.04.03-.06.05-.07.02-.02.05-.03.08-.03.04,0,.07.01.1.04.02.03.03.06.03.1s-.01.08-.04.11h0Z"/>
        <path d="m22.9,13.5v.33h-.12v-.1h-.52v-.13h.52v-.1s.12,0,.12,0Z"/>
        <path d="m22.7,14.02c0,.06-.02.1-.07.13-.04.02-.09.04-.16.04-.06,0-.11-.01-.15-.04-.04-.03-.07-.07-.07-.13,0-.04,0-.07.03-.09.02-.03.05-.05.1-.06.03,0,.06-.01.1-.01.06,0,.11.01.15.04.04.03.07.07.07.13h0Zm-.11,0s0-.02-.03-.03c-.02,0-.05-.01-.08-.01s-.06,0-.08.01c-.02,0-.03.02-.03.03s.01.02.03.03c.02,0,.05.01.08.01s.06,0,.08-.01c.02,0,.03-.02.03-.03Z"/>
        <path d="m22.81,14.25v.12h-.12v.05h-.1v-.05h-.33v-.12h.33v-.04h.1v.04h.12Z"/>
        <path d="m22.69,14.65v.12h-.42v-.12h.05s-.06-.05-.06-.08c0-.02,0-.03.01-.04,0-.01.02-.03.04-.03.04-.03.1-.04.17-.04s.13.01.17.04c.01,0,.03.02.03.03s.01.03.01.05c0,.03-.02.06-.06.08h.06Zm-.1-.03s-.01-.02-.03-.03c-.02,0-.05-.01-.08-.01s-.06,0-.08.01c-.02,0-.03.02-.03.03s0,.02.02.03h.09s.06,0,.08-.01c.02,0,.03-.02.03-.03h0Z"/>
        <path d="m22.94,14.85v.12h-.68v-.12h.68Z"/>
        <path d="m22.88,15.5h-.12s.04-.06.04-.09c0-.02,0-.03-.02-.05-.01-.01-.03-.02-.04-.02-.02,0-.03,0-.05.01-.01,0-.03.03-.05.05-.02.03-.04.05-.05.07-.01.01-.02.02-.03.03-.03.02-.06.03-.1.03s-.08,0-.11-.03c-.03-.02-.05-.04-.07-.08-.01-.02-.02-.05-.02-.08,0-.04.01-.08.03-.11h.12s-.03.07-.03.09,0,.04.02.06c.01.01.03.02.05.02s.03,0,.04-.01c.01,0,.03-.03.05-.06.02-.03.04-.06.06-.08.03-.03.07-.04.12-.04.06,0,.1.02.14.05.03.03.05.07.05.12,0,.04-.01.08-.03.11h0Z"/>
        <path d="m22.7,15.75c0,.06-.02.1-.07.13-.04.02-.09.04-.16.04-.06,0-.11-.01-.15-.04-.04-.03-.07-.07-.07-.13,0-.04,0-.07.03-.09.02-.03.05-.05.1-.06.03,0,.06-.01.1-.01.06,0,.11.01.15.04.04.03.07.07.07.13h0Zm-.11,0s0-.02-.03-.03c-.02,0-.05-.01-.08-.01s-.06,0-.08.01c-.02,0-.03.02-.03.03s.01.02.03.03c.02,0,.05.01.08.01s.06,0,.08-.01c.02,0,.03-.02.03-.03Z"/>
        <path d="m22.94,15.98v.12h-.68v-.12s.68,0,.68,0Z"/>
        <path d="m22.69,16.18v.12h-.3s-.02.01-.02.03,0,.02.02.02h.3v.12h-.33s-.02,0-.04-.02c-.02-.01-.03-.03-.05-.05-.01-.02-.02-.05-.02-.08,0-.04.01-.07.03-.1s.05-.04.08-.05h.33Z"/>
        <path d="m22.81,16.57v.12h-.12v.05h-.1v-.05h-.33v-.12h.33v-.04h.1v.04h.12Z"/>
        <path d="m22.89,16.84s0,.04-.02.05c-.01.01-.03.02-.05.02s-.04,0-.06-.03c-.01-.01-.02-.03-.02-.05s0-.04.02-.05c.01-.01.03-.02.05-.02s.04,0,.05.02c.01.02.02.03.02.06h.01Zm-.2-.06v.12h-.42v-.12h.42Z"/>
        <path d="m22.7,17.13c0,.06-.02.1-.07.13-.04.02-.09.04-.16.04-.06,0-.11-.01-.15-.04-.04-.03-.07-.07-.07-.13,0-.04,0-.07.03-.09.02-.03.05-.05.1-.06.03,0,.06-.01.1-.01.06,0,.11.01.15.04.04.03.07.07.07.13h0Zm-.11,0s0-.02-.03-.03c-.02,0-.05-.01-.08-.01s-.06,0-.08.01c-.02,0-.03.02-.03.03s.01.02.03.03c.02,0,.05.01.08.01s.06,0,.08-.01c.02,0,.03-.02.03-.03Z"/>
        <path d="m22.69,17.36v.12h-.07s.03.02.04.03c.02.02.03.05.03.07,0,.01,0,.03-.01.04,0,.01-.02.02-.03.03-.02,0-.06.01-.11.01h-.28v-.12h.3s.01-.01.01-.02,0-.02-.02-.03h-.29v-.12h.43Z"/>
      </g>
      <polygon points="23.15 16.29 23.15 16.77 24.04 16.52 23.15 16.29"/>
      <path d="m25.54,11.26h-.69v1.64h.69v-1.64Zm-1.7,0h-.69v1.64h.69v-.89h.16v.89h.69v-1.64h-.85Z"/>
    </g>
  </g>
  <rect class="cls-2" x="1.44" y="1.28" width="17.02" height="6.03" rx="1.62" ry="1.62"/>
  <g>
    <path d="m5.15,3.87c0,.17-.09.31-.26.42.12.09.18.23.18.42v1.62h-.4v-1.62c0-.24-.07-.36-.21-.36-.18,0-.39.19-.63.58-.28.44-.46.91-.53,1.4h-.42v-1.98s-.1.03-.19.03c-.15,0-.28-.05-.38-.14-.1-.09-.15-.21-.15-.34s.05-.25.16-.35c.11-.1.24-.15.39-.15.18,0,.32.05.42.14.1.1.16.22.16.38v1.14c0,.09-.03.29-.1.61h0c.02-.08.05-.17.07-.26.03-.09.06-.2.09-.31.23-.49.5-.81.82-.95-.07-.07-.1-.16-.1-.28,0-.14.05-.25.16-.35.11-.1.24-.14.39-.14s.28.05.39.14c.11.1.16.21.16.35Zm-2.23.03c0-.14-.08-.21-.23-.21s-.23.07-.23.21.08.21.23.21.23-.07.23-.21Zm1.93-.02c0-.14-.08-.21-.23-.21s-.23.07-.23.21.08.21.23.21.23-.07.23-.21Z"/>
    <path d="m5.5,2.81c-.26.17-.56.26-.9.26-.14,0-.27-.02-.39-.05-.12-.03-.22-.07-.31-.13-.09-.05-.16-.12-.21-.19-.05-.08-.08-.16-.08-.25,0-.13.04-.24.14-.33.1-.09.22-.13.36-.13s.25.04.34.13c.09.08.14.19.14.31,0,.13-.06.24-.17.33.07.01.15.02.23.02.22,0,.41-.05.58-.16.19-.13.3-.29.32-.5h.41c-.04.28-.19.51-.46.69Zm-1.19-.38c0-.12-.07-.18-.2-.18s-.2.06-.2.18.07.18.2.18.2-.06.2-.18Z"/>
    <path d="m7.79,6.22c-.1.1-.25.14-.42.14-.15,0-.28-.05-.39-.15-.11-.1-.16-.22-.16-.35s.05-.24.15-.34c.1-.09.23-.14.38-.14.09,0,.16,0,.19.03v-1.16c0-.17-.07-.32-.21-.43s-.32-.17-.53-.17c-.42,0-.7.17-.84.5h-.42c.19-.52.61-.78,1.28-.78.16,0,.31.02.44.06.13.04.25.09.35.17.1.07.18.16.24.26.06.1.08.21.08.34v1.64c0,.16-.05.29-.16.38Zm-.2-.35c0-.14-.08-.21-.23-.21s-.23.07-.23.21.08.21.23.21.23-.07.23-.21Z"/>
    <path d="m10.89,6.16c-.11.11-.31.16-.59.16h-1.48v-1.53c0-.16.05-.29.16-.38.1-.1.25-.14.42-.14.15,0,.28.05.39.15.11.1.16.22.16.35s-.05.24-.15.34c-.1.09-.23.14-.38.14-.09,0-.16,0-.19-.03v.82h.85c.23,0,.37-.02.44-.07.09-.06.14-.19.14-.39v-1.32c0-.17-.08-.32-.23-.43s-.34-.17-.55-.17c-.44,0-.74.17-.88.5h-.42c.19-.52.63-.78,1.32-.78.16,0,.31.02.45.06.14.04.27.09.37.17s.19.16.25.26c.06.1.09.21.09.34v1.45c0,.24-.05.41-.16.52Zm-1.25-1.4c0-.14-.08-.21-.23-.21s-.23.07-.23.21.08.21.23.21.23-.07.23-.21Z"/>
    <path d="m13.99,6.16c-.11.11-.31.16-.59.16h-1.48v-1.53c0-.16.05-.29.16-.38.1-.1.25-.14.42-.14.15,0,.28.05.39.15.11.1.16.22.16.35s-.05.24-.15.34c-.1.09-.23.14-.38.14-.09,0-.16,0-.19-.03v.82h.85c.23,0,.37-.02.44-.07.09-.06.14-.19.14-.39v-1.32c0-.17-.08-.32-.23-.43s-.34-.17-.55-.17c-.44,0-.74.17-.88.5h-.42c.19-.52.63-.78,1.32-.78.16,0,.31.02.45.06.14.04.27.09.37.17s.19.16.25.26c.06.1.09.21.09.34v1.45c0,.24-.05.41-.16.52Zm-1.25-1.4c0-.14-.08-.21-.23-.21s-.23.07-.23.21.08.21.23.21.23-.07.23-.21Z"/>
    <path d="m16.81,6.32v-2.07c0-.19-.08-.34-.24-.45-.13-.1-.3-.15-.5-.15-.32,0-.57.1-.76.29.1.04.2.08.28.13.09.05.16.11.23.18-.28.09-.42.26-.42.51v1.56h-.4v-1.57c0-.27.11-.44.34-.5-.06-.04-.13-.08-.23-.12-.09-.04-.2-.09-.32-.13.31-.42.74-.63,1.29-.63.33,0,.59.07.79.22.23.16.34.38.34.67v2.06h-.4Z"/>
  </g>
</svg>